/* XPM */
static char *_8135_c88fb31906e16a569fd466339d3c976ad043a8e0ac0e50284eba4a7002eb5987[] = {
/* columns rows colors chars-per-pixel */
"64 64 45 1 ",
"  c #446633",
". c #4A6D39",
"X c #4C7436",
"o c #4D733C",
"O c #51763D",
"+ c #537A3E",
"@ c #4F7440",
"# c #527541",
"$ c #567B43",
"% c #597E45",
"& c #577C48",
"* c #5A7E4A",
"= c #5B8345",
"- c #5F8947",
"; c #5E834B",
": c #5F8949",
"> c #5F8450",
", c #60864D",
"< c #638A4D",
"1 c #67914F",
"2 c #628651",
"3 c #658B53",
"4 c #688E55",
"5 c #668758",
"6 c #678C58",
"7 c #6A8E59",
"8 c #669051",
"9 c #6B9255",
"0 c #6E9856",
"q c #6D935B",
"w c #6E9858",
"e c #70965D",
"r c #729A5C",
"t c #6F9460",
"y c #729661",
"u c #759B62",
"i c #789E65",
"p c #7A9E69",
"a c #77A161",
"s c #7AA164",
"d c #7DA36A",
"f c #80A56D",
"g c #80A86A",
"h c #81A671",
"j c #84A972",
/* pixels */
"+=39w3<<+9990<=1-99<9g<1g--11gX%11-g0--0%1gg++1g1g%gg+<++%g%1X%1",
"%,%<4w3<r<9<<=<0g911--1--g<g1%-11g0001g1--0--gg<%<1+%+1g%X%1g<f*",
"=,4=<<990<-<+,<=91--1-ggg+1<+-g1----00-1gg-%<g<--%0-+g11g%%-+fg+",
"3<,+<<<r-9=:0<<0-g9<<-1ggg1%g11-g100g1%1-1-g<1g+%g<-gg<1<*g%<Xf%",
"9,,%<999,<1011r001-e9-9<%g-%g0-<g1g-g-0gg%--+%gg--%1---+01<%%-<<",
"4,=,<r1<1<=0<<1000<099<-%--gg1g1--+g111-%--+%g%1-gg1g1%+,,11%1*<",
"4=<,,:<<<1<00,,<g=<90gg1011g%-111g1g1gg+11-%10<%%11g+-%%1O%-*g19",
",<%,<r<+,10<<9<19<g1<11g0g0-1gg-g-g-g-%g1g1gg-+%-g1+%%gg1%%3<<91",
"<,,114r9,r9+11%1-1<<11-9g%g-1g1-+g--<gX11-gg1g%g911<1<3<990%9r4%",
"3<4,9qrr01<<1r0<g<X<<g<g%<-1+1gg1-1g-1g%g%1%-<1<g%<<11<0,<<<1,1<",
",<qe9<,<1,1,0r10=g=g=g<9g-g+g1++-1g+gg%-g--%g10%%X909919,901+11<",
"4u3sr,,9r<111%9r11<-1<111g-g1ggggg1---ggg%0gg11%%9g9<31<10e%,<,4",
"49<q9q9q10<01<1e111f-g-11g11ggg%--%g-111%1g%g+1g-90%1gg900<,4,0r",
"O%<q90194rg9qr<1<g91g-g%+%1g-ggg1gg%%<1g10%-1g1191-0,1-+,g,3,<,,",
"<0,0g,%01<r<%40,g<-g1+1g1%g1-1-ggg1gg%+-g11*101+%39gg11,0091<<<,",
"9<<,1%1<4<11r9<1-g-1g1%1g1g1+gg-+11*%gg-%111g%g1<11-9,g0%<339,*<",
"9<0<%%<1-g+gg*9f%11g-%1gg1<<1ggg1r1g0<e914e9<--f199*%fg*1*%f%1%g",
"<9g%1g0gg--gg%911%%gg+1++gg-g11-9911<-99=-49ff9<q91g%f<%Xgg*%%*%",
"<19<<gg+-gg+X+%g11*<g11<1-g111f-19=<g9rr-<=,4+f4*9*1f*fgfg%++fgX",
"1,%<+1g0%%gg-gg<1-1g*1ggg%%f9g*-r1-rgger99f9<e,=1<f4111%%*%g+Xf1",
"*<%939f1g%%*%g<<11<+-%1gff+-g<%-rr9r=0=-9%9eg1,f1*94*gf%+%%gf++*",
"%*3<93ge<<g1-+ggf11gg%<19<-g--gg91rr91--94%ef4,9f1+f*1%%*g%*%gXg",
"11949g+*1gg%1%<+%+f9*ff%f*ggg11g4-r9f<-f9re%%4<44f*1*f+<%*1**%g+",
"f1O4<%g9*<<1gg%g<<1<*4<919*%gg%%9=<9g4<-44=9<fe<fg%gg%%%%g%%gg*%",
"**144*g<*1g9Xggg<%+*44gq*q9gf1319g4er<4e,199e<X=<f<f-g+g<*%%g+4f",
"11%f<19fg%g%g1+19g-*39991f4f93g<r1<r4r9<4,f94949,-%-%%4f*gggg+<+",
"*%14+f*gf11*g<<gfq1gf1<,g1919eg%9ie=9r4,<f<,9,<+<f,*4-g<g1**%+f%",
"*4f1f1g<ff<f<<1<Xq11991f1f*fe<9g99r9iir,<f%+,f9f4--ff%*fg%1<%f*%",
"f%O%94%%X%fg+%1%*qe40rf3*gf%1%%09<9iie9,4f++f4<f9,+4%%g1%ggX*%*%",
"%<<**f%1<f%ggg%-f914fe0f%f<f9gf44e<<99er,+14,<=94,9%g<++%%%**ggg",
"f%ff<14f%*g*%1gg4fge,ee9*<999913e994e9e<<99f%f%4e<,,*%g%%g%f1**1",
"f+<4*9*gggg1*+1gf%%10eref<*g991fse4%e9e4gf,49=9<e4<9++gg<+Xf*f+f",
"634r7:<qqqs4<u39i3;wr,;qy<7qw<qree94<i49gg+*g%f%g3f+*49f%1f**9f*",
"qyw:y;620q,=:r4uy,4$66wuqe3r76q3<9=,94<9%f*%%g<f+<,+*%4*%f*%<<%1",
"33269<;<se,%4u993;y6<4yd9;,y46o24ir1449ef%g*+%114f*%1f1*f<*ff4%%",
":%;yq3qq4q9eriq3;93:eqqr649*:q=3ii=e44ei<%+fg%%1*<44*1fgf%9<*%*1",
"q$%;;,3i593<q;q92ud3;qy6<ud96wqr4,e44,4if%%**<%3f***<%f<449%9%33",
"%3<2;9434,44;su3;4iw4q9q6uir6:42%4i4=44,4%f%g%f%%g%%fg**e,e494g*",
",:69432;943er6<:9;;,<:6rqi;;q23qi5eee,,e4f<f1<3f*%<fgf%f*,<7<*3*",
";69;3=q4q,ee3323qq,j63rq69d28q29ee44ie,5*f7f<4*<g%+f+%%%4f****e*",
"32;6:;:3dq>q3;26ydji%:yqwyqqyr6*444455,44,5,,,4f:6;3;$$qr*%274*,",
"qrq36<23;3qqqusyyyq923qw6;2=43q2%,44%e954,%e,,f3;;6q;;7y4*<5*273",
";94;23;5q36oq6q6qq5y24>63<w3qy;>i4,45<99=554%4*4262q>62;O*<**qy$",
"yq;e2w7,q;&;;&yq6qy6sw6<q2;yq3**24fe5,257e5,f<,f62323q&;7*7*$2i7",
"4w;qq;62>2q666q57;269yr::q4qy6qt5,55,##547f%,f<+3:32q>6q2t622$35",
";2366*96>%2673;qqq77q2w6q6d3666qf%,e%,5e,,454<4422>36*63;;4,77&<",
"22tyuq3>t6q6t;tqq537w6pdq2q,w6;ye<<e55e22f,fe4<f;2763y7q2.27;*2e",
"3:3qy2yqq%3yytq3q6442q,q3qu32$2q54,,4,eee5.*2*4e;2q6;y6&;y5$222y",
"q*6;&y32263$dpt6f*47*f**ff**7j*#**ff*ff455,%4f52>23q$&>&tq,%*%*7",
"33>;>36tq6y77>q;43q7f*fe*t**2y27y**t7**f#2e,%,ee;@5>5q&>y353,qt*",
"q6&p3&3pi;3;>t>3q7y7*f*et**577yq55**fff*eef2<57,&>$>tt7t775<*4*5",
"q3>qt3>>;;77juqy44eyf*3*t5*7y;2uf5f*#f**e%<7f422q>q55*357q32ey5*",
">>532q5q;3>;t3t3503ypfy5t73qp54<**f53f *ff**f*5fy7y3**t7*yf***e*",
"7ty3*23t$5yq>626<5e7ppfeut5#54=,*y*f*ffXe5f5ee7e&=#3@>y65****ff*",
"2,2p%;3q5>5;3q6ef57q5,i7pfup9;34*f*f5*,f245f555f3;335*&25**hff*t",
"uq7eqyy*;;y3;7,*tyyee3,427tfre5,**f*%%#5%2f4f#e*>67;>5*&5t*t****",
">>tt>q7qdp3qyq3ue7qe*f557pe&7ey5fff*5*y7f***ee7e555555*pf**575*#",
"*;tyy7>>3tq6t>35*f*75*e+7hy,ei7*****fy*5*f5#e555e5*555****e5f5*5",
"37u>>;&5$qj62eq5*47,33q4e67733ttf**f54f7f45%5y**54555555 *5577*5",
"6>>;@7tq56tde35e4*2354*5&e7273*ttff*3777*ff5e#55ee555**5f**t7755",
"22*5yt>q25575*5e2p337yqt7y7ytyyp7ff545*<7*ff,555*,55p**5f***5##7",
"55*q6>&t2&q57py75y7e375ty6y7**pt*7y7*32ee4%7ef*e*ff7****#****5*f",
"#*755675t5*tt7p*7q3quyt>>*tuf**#*f7y777q%%525,e5,e5*5ty*.* ****f",
"2q75t>>22;uy5**tqy7&&=ut>575t5yyf*5y72fef5efO5*55,f55*tt5*f**f**"
};
