/* XPM */
static char *_4471_6f7064a6f6bbd8278258518b96f01b2d3c21dc3507e912e0be011e76d0f13a8a[] = {
/* columns rows colors chars-per-pixel */
"64 64 218 2 ",
"   c #000900",
".  c #132807",
"X  c #1E360F",
"o  c #1A2D11",
"O  c #183814",
"+  c #243D13",
"@  c #363C2E",
"#  c #294718",
"$  c #304C16",
"%  c #334E1A",
"&  c #3A4E19",
"*  c #3F541E",
"=  c #29400A",
"-  c #2F4820",
";  c #344B25",
":  c #374A2B",
">  c #385428",
",  c #3C4A31",
"<  c #3D5136",
"1  c #41522E",
"2  c #425726",
"3  c #405534",
"4  c #46573F",
"5  c #445C35",
"6  c #41612F",
"7  c #446833",
"8  c #486C37",
"9  c #4D653F",
"0  c #4B6C3A",
"q  c #456735",
"w  c #526C3F",
"e  c #4D7537",
"r  c #4E733C",
"t  c #51753D",
"y  c #537A3D",
"u  c #4E5D44",
"i  c #52574C",
"p  c #4B4A46",
"a  c #55694B",
"s  c #4F7343",
"d  c #537641",
"f  c #557B44",
"g  c #597E45",
"h  c #577D49",
"j  c #5A7E4A",
"k  c #59714C",
"l  c #576E51",
"z  c #68685B",
"x  c #647856",
"c  c #6D6E60",
"v  c #737667",
"b  c #777C69",
"n  c #70796E",
"m  c #827B73",
"M  c #5B8245",
"N  c #5D834B",
"B  c #5E894B",
"V  c #5B8547",
"C  c #5F8450",
"Z  c #5F8957",
"A  c #61854D",
"S  c #638A4D",
"D  c #6A894F",
"F  c #68874C",
"G  c #66904E",
"H  c #68914F",
"J  c #628651",
"K  c #658B53",
"L  c #698D55",
"P  c #678C59",
"I  c #6A8E59",
"U  c #66825C",
"Y  c #718E5A",
"T  c #669153",
"R  c #6B9255",
"E  c #6D935B",
"W  c #6D9A5B",
"Q  c #67925A",
"!  c #71955D",
"~  c #739A5C",
"^  c #739558",
"/  c #76A15F",
"(  c #778669",
")  c #6F9461",
"_  c #6F9860",
"`  c #729661",
"'  c #7A9766",
"]  c #759B63",
"[  c #799D65",
"{  c #779C69",
"}  c #7A9E69",
"|  c #76A262",
" . c #7AA265",
".. c #7DA36A",
"X. c #7FA86E",
"o. c #CC8735",
"O. c #C5833F",
"+. c #CC8A33",
"@. c #D48B37",
"#. c #D28B39",
"$. c #D59139",
"%. c #D9933C",
"&. c #E2953D",
"*. c #829F69",
"=. c #898578",
"-. c #889575",
";. c #938779",
":. c #80A36C",
">. c #82AA6C",
",. c #83A672",
"<. c #85AA73",
"1. c #88AD74",
"2. c #86A27C",
"3. c #8BB279",
"4. c #D28E43",
"5. c #CC9248",
"6. c #DC9444",
"7. c #D79444",
"8. c #D89B56",
"9. c #C58C47",
"0. c #E29A4A",
"q. c #E79C45",
"w. c #E79D52",
"e. c #E6A24F",
"r. c #E9A054",
"t. c #EBA158",
"y. c #F2AA56",
"u. c #DBB17F",
"i. c #EFAD64",
"p. c #E9A660",
"a. c #E1AE7A",
"s. c #ECB672",
"d. c #EEB976",
"f. c #EAB67B",
"g. c #FCBA70",
"h. c #FBB265",
"j. c #FFC773",
"k. c #8A8A84",
"l. c #939C84",
"z. c #94958C",
"x. c #949790",
"c. c #A99A89",
"v. c #B29D88",
"b. c #99A78D",
"n. c #9BA893",
"m. c #9DB595",
"M. c #AEA08B",
"N. c #A6A69A",
"B. c #B3A594",
"V. c #A4B497",
"C. c #ADB59C",
"Z. c #A4B69C",
"A. c #B8A88F",
"S. c #B7B9AA",
"D. c #B5B8B4",
"F. c #A8AAA6",
"G. c #CAAF9E",
"H. c #C2B39C",
"J. c #D3B39A",
"K. c #D3BF98",
"L. c #D3B296",
"P. c #E8BA8A",
"I. c #E5BF9A",
"U. c #D9BAA8",
"Y. c #C4BDB3",
"T. c #BBC7B5",
"R. c #D6C29C",
"E. c #D6C298",
"W. c #F5C683",
"Q. c #FBC584",
"!. c #FCC98B",
"~. c #F2C38D",
"^. c #F5CD9C",
"/. c #FDD399",
"(. c #C7C0A8",
"). c #CAC4B6",
"_. c #C4C6B8",
"`. c #CECDB2",
"'. c #E6C5A3",
"]. c #F2CBA0",
"[. c #FEDCA5",
"{. c #F2D5B7",
"}. c #FCE0B9",
"|. c #C6C7C4",
" X c #D1CDC2",
".X c #CDD5C3",
"XX c #DDD6C4",
"oX c #DAD4C9",
"OX c #D5D7C9",
"+X c #CFD1D0",
"@X c #DDDDDE",
"#X c #D9D8D7",
"$X c #E4DACD",
"%X c #E7D9C3",
"&X c #F3DFC6",
"*X c #E4DCD2",
"=X c #D5E1CB",
"-X c #DEE9D4",
";X c #DEE8D5",
":X c #EDE2C6",
">X c #FAE5C8",
",X c #E4E3D9",
"<X c #EBE9D9",
"1X c #E9E3D5",
"2X c #FBEBDC",
"3X c #F5E5DA",
"4X c #FFF9DE",
"5X c #F8F2D8",
"6X c #E9E9E5",
"7X c #F6E9E3",
"8X c #EBF3EA",
"9X c #E7F3E3",
"0X c #FFFBE3",
"qX c #FCFCED",
"wX c #F7F3E7",
"eX c #FDFDF4",
"rX c #FBFEF9",
"tX c #F6F8F4",
/* pixels */
"K E ^ E T K V S R S  .G S W / y M G R ~ R W H S H G H M H ~ ^ ~ ^ y H W ^ ^ / ~ H H W R G G F G G R S / V V R S R W M R R S R S ",
"S S L N R B T B B / W G W y H H ^ G B ~ R S / R / / G H / ~ M B R R >.W G / R G G  .S S B S H ~ ~ R S S e S ~ A ~ R ~ R S S R S ",
"A M N ~ R T R S G S S R ~ H D ~ R ~ S R R H ~ ~ H W ~ ~ G R  .^ H / S G y ~ G / R / ^ H W F W W H V M S V ~ ~ ^ S S S M R S / R ",
"S ^ ~ ~ S S S R T B M R ^ W F W R R R R W S ^ ^  .^ ^ / >. .>.~ / R S R ~ R T S H R W R / S ~ G S ~ R M G ~ S S R | ~ ~ R R R R ",
"] R K K R ~ | R G ~ W G ~ G ~ A R W R ~ ^ V G G R W ^ W ~ >.W R G G R W S G G W ~ S S S V S W W G F ~ S H S S M S / ~ S R ~ / M ",
"] S L ~ R  . .^ S ~ G G G / ~ ^ R R ~ V R | M e G ~ / R R  .~ >.>.^ R R W S F S G R  .S H V G  .W R G R ~ V W ^ R S S B y R ~ V ",
"A g R R S S ~ S V S R R V R / S ~ ] W S V ~ W R A ~ / S G ~ R W R G  .S W R G S S ~ R S F S R R ^ F V y M ~ ~ W ~ R ~ N R ] R R ",
"M A R A W M G G S ~ V R H R ^ R S / ^ R S R R ~ H / W ^ G  .~ S S ^ G G F S R W G R V R R S ~ R G / R G R G R S R S | ] S M S L ",
"A A L S ~ H A W >.~ ~ S R ~ S ^ ^ ~ G G S ~ >.^ S G R S ~ ~ >.^ S ~ R W  .R S W R R S R R G S S A ~ ~ D R G S B V R | E L S A A ",
"S ~ ..~ W F H ~  .S ~ W | S B S S / R A S R M R ..S ~ ~ ~ R G H R R ^ ^ ~ S S S ^ G M R ~ R ..~ / S L L S ~ R R S ~ ] V V g S ^ ",
">.~ R ~  .^ F S M S e G ~ R S S R /  .G R y M R R >.S / ~ ~ H V R H S B G G S ~ R S y V V N ] T S ~ ! M ~ R T E K R | ! E g ~ R ",
"L ~ ^ y V R / W M S S R | G G S V W W ^ / ~ ~ / M W ~ R R / W H G R S V ~ 3.^ ~ :.W S ~ S T K B A [ S S E R G N  .E ] R E ..E g ",
"^ :.^ ^ R R ~ R G ~ ~ R S R B S ^ S B ~ ~ ~ S ~ V A W ^ W ^ G G / R H / / ~ / ^ H ~ K L ~ ] K T ~ f E K M ] ..S K K  .K g B N L ",
"W ~ W S R R A F R R S S ^ S R G G M A M S / ~ ~ ~ H R / G H y ^ ^ ~ R ^ R y ~ A y D S N R R ~  .^ E E K L K T K S ~ R N g N E M ",
"S R ~ ^ W ~ S ^ ^ B R / ~ R ~ S ^ >.W V G R R G B F R W A ^ W ~ R G W W ~ R ~ S y F G L f R ..~ K A ~ ~ K N S  .S ~ f M g K J K ",
"W F A H S K ^ S R V S R V R M M ~ ~ R ~ ~ R ~ ~ S ~  .^ ~ W /  .R S H ^  .[ F S ~ :.~ ^ ~ S B M S J K ! W E ^ L N E N M K f g M ",
"S ~ S S M L ^ S ~ R R T E g N E S S V L L F S ~ S ~ ^ *.*.S e G H y G G S >.~ S R g ) ! S B y [ ] L S [ [ L L ] S V S L M L ^ R ",
"A [ } S R L ~ ..R R ..^ ..R g L N K K E D :.W B ] L F F  ...G S R W S B >.R A K R K Y A M ~ Q ^  .N S  .>.S ~ ~ E ^ M L g A S M ",
"S E S ~ S R ~ R y K R ~ R V R g A J P ) ~ Q B B { { ~ >.~ N K E R *./ G H ~ T N ] L D E / G B E t y N L L R E E L L S | | S L R ",
"^ ^ ] ~ ^ S ~ M R | S S [ R ~ K M C Q ` E  .R Q ` { ,.R J ....E } ^ G T / B E W K R G R  .~ R Q ^ ~ R L N B r S M N ^ ] R A 1.] ",
"] R R K  .K ~ ~ S R ~ W W E E ] S  .^ R K S R R E ] : < < ; u J ] W Q S h E [ R g Y D ~ M V W T S K g S E K E M E N L ] E L L A ",
"] ] A ~  .Q R W G L S R V y K T N ^ E ~ B ^ ~ ..:.= b._.-X=Xb.3 2 ` ,.] ) }  .] A j H *.N f M K ~ R E L ~ ^ E ..K N R E R >.M S ",
"S K f M K N ~ ~ G G S R V M E [ W R S ~ *.~ ~ ' > b -XOX<XeXeX9Xb., o % 9 ` ] ~ L D ~ W e f I ' K E ..E N N M [ N M E ~ K ~ ^ E ",
"[ f S R T S R G ~ R R M S ~ S B S S >.L ^ *.x : b.wX<XXXXX1XeXrXeX9XOX=XC., ` R L S A R A K I I K R A R K K M J ] A N L N A A A ",
"] A R ] R ~ S R ~ ~  .W  . . .E ~ W [ _ ! ' 1 S.qXeX3XXX$XXX$X7XeXeXeX7X<X-.2 / ~ W M C ) W S L K M ..K M E A N L N g r S N K R ",
"K K  .E K ~ E W S M S ~  .S W  .X.S C ) ' g x <X*X*X$X%XXX%X$X$X*X*X*XoX*X=.w ~ M R ] E ) ] g ~ R r K E K M M A K M E ! K K E t ",
"E M ` E [ R X.] R V M | L ..K M D ~ ! ] E ' 1 C.S.Y.XX1X*X*XoX XoX*XoXY.n u I E K E >.E B K ^ F R R K R E N ~ E M E E  .L S M N ",
"N N E ~ ~ ~ >.! S ~ ~ A R ] K K K ] L K K S Y . v m z ;.N.m c c c b z k.v x l.{ E [ ~ | B T K A ~ ^ R [ J E E V E K N K K R S R ",
"A E K A S A S S t E [ R ] ..M E f K Y D K ] ~ %  X8X*X_.x.C. XOX).).).wXD.  < . : Y L ^ Z M K E ! [ S A ` N A f N M K ] e E [ ~ ",
"R f L R <.^ M N M ~ S K E ! N I E f A L R ~ / $ _.7XtXeX5X:X:X%X>X>X&X2XN.D.9X.XV.5 ^ R T N C K K ! L A E K N N E K K T A ~ ^ M ",
"A K K E E S K K N ....K R N M L E S ~ T ~ >.W $ U.U.7XqX}.[.[.[./.!.a.].C.n S.+XrXb d S S ~ K j A g K ~ E R M N N E E ^ E L L ~ ",
"E L ` L ~ ! K ~ ~ ^ R E K K I ] M A E ] B W W % R.J.7XqXu.5.8.5.4.4.O.~.B.F.|.p 8Xv j R M ^ ^ R N S R S S M E K K L ! ] >.! S K ",
"N N ] E K T T N K E M ] I L ! <.! L K P  .G ~ & E.L.2X0XP.4.8.r.w.r.@.!.v.*XrXk.8Xu { N C j A F S A L ~ A E N M C d I I N K K ) ",
"R E K K N S S T N Q ,.E K N A ' ' Q L E _ K R * E.L.3X0Xs.7.q.h.t.6.@.W.c.#X@Xx.8X- Z N ` J Y A R K K I E K J I ] I J P ] E P J ",
"L N N K ] R K Q ] Q R K j I L j E h K K Z Q | > E.L.3X4Xs.%.e.+.p.i.o.!.c.#X+XF.@Xo ` ~ ` I ` ` S E E M N S { ....E Q K K N C K ",
"M L E B K M E E ] N J K K I ! f K Q Q M W ] T = E.J.2X4Xs.$.6.j.g.i.+.W.c.@X|.|.=X. ,.[ E X.` Q P N K [ N f N I C J I N K N ` h ",
"N L j { E ! E K S K K T K ` ` Y >.>.S M ~ Y ^ 2 R.J.7X0Xd.$.q.j.y.%.#.W.M.|.x..XT.# I ) E Q f L N E E N K T d ] K C N r } ] E j ",
"N J J ! ] I g  .E N K K L ] :.1...S y K Y ^ ~ 2 R.J.3X0Xs.$.q.#.&.q.+.Q.B.i k.eXV.; ` j J B B K M ]  .N L K K J f d j ! ) J h N ",
"L N I j J K ] P K [ :.] ' ' D P K I K K R ~ T % K.J.3X0Xs.%.&.e.q.q.#.!.v.T.eX-Xx D L j M E L S K E K N J J Q I N N ` P ] J j P ",
"P j N E K I Q 8 J ) N ) P I ` I I ) Z E S B W # R.G.3X0Xf.%.e.6.0.0.O.P.H.: z o a D f I L I t ] K K K N K N I L J I N N h 7 J N ",
"Y ! J E E d h J M j J ) E I L ' } ` ] E N S R q S.*XeX0XP.9.5.5.8.a.I.&Xz.< x P ) E I ) A L R I 0 ) ] E J L J I J ] N s L J g j ",
"I I j N K I Q N P J ] ] K L Y j Y x [ [ ] R A 8 i k.D.$X{.]././.].U.B.=.u l C f J Z Q _ ^ d L } [ J N I N J J j E C N ` I I ] E ",
"f N ) J J d J ` I ` N C ` L P L P K C K R F L + _.tXD.z.=.=.=.m ;.c.Y.qXm.# Z h x I N K ^ Y N L Q J C J K C P I J C E E N h P I ",
"K L I A K J I J J K C I I ! ! P K ` [ K ^ [ Y j a D.8XrXtXtXrXrXrXeX9XZ.6 s J ) ` J L K L L ] E E ` X.j K J j K Q N J J E h N C ",
"R K N K [ J ] J } J C ] K ` C N W N E E E ..W ^ N # + k -.b.m.b.( l O O ) P I K ^ j I _ J _ E N M K I j A L ` K J ] ] I I j r K ",
"K E [ I I r J ] _ ] ] I I K ) J E K K E K R L S ~ >.L A > % ; l l U P Z J P g I :.! _ N s f T A L K } j P I Y N C ] K j r K ] J ",
" .K K S K K C f ` 1.) E J E ) I I I N R C J L ! Q J x j X.,.h j I I P 3.N P _ ] ! L K ) N N P ! I A A J K K N ` r j P d J { Q J ",
"K E E K K K ] K ` E J ] J K K Z { J ! I ! ] L [ I j K C ..E M J P j K ` ) P C P L E 7 K Z J M Z ^ ^ ' j f K E j C K j d ! K N N ",
"N P K 3.) N Q L j g I N J E E E E ! K ` ! P P f C C k J N ) E ` I A j h ) { { J ] N J ` ] K A Z A ' A d j h j N ` [ J K ] ` Y I ",
"h N E ` N J I j K ..E J Q ` K I ` L ' I Y j { I J j Q ] E I I ` I I J { C ) <.) N E ] K E L L E P L j N J J g P I N I ` K I L j ",
"P K J C j J ] N 3.} ) ` { J K I ` ' ! L ` j I K C C J ) E h K E ' N ` J C j ) C d E S N Q E [ [ K A I ] K E ] N C C N J J ' I ! ",
"` P E K C K N d K P K I J I ] J K ' ..' :.E I ` E Z ) ..` J I K J L I ] ) J J C d Q [ ` I j ' L j ` ] ! ) P ` h C N Q ] L D I ` ",
"K N ~ N f E ` ` J K K P I h K I I I <.' :.] E ] I I h h I K N C j K E ` P Q ` { d E ! ] L K ) ` L ` P f j 0 J Z 0 h ` E j I j j ",
"A N K E N N Q K K J ` N ..[ E K ! ` L A { ! { { ] ) ` ` J j K j ! { K ` ) C J ) E P E K ` ` U ' D I ) J P K J P j I j I I J t P ",
"R ! K E M K K h K J ` j C ] E I L ! Y g A ` J ] ..{ <.` E Q I I I E K I J C P d E h C [ ` ` ,.j j } J J j C I J ` j k 6 g L I I ",
"E ] N M K E ` [ K P K j J P ] } ' ! L ' P J K j J K ` E E ` J N N E E J C N h j I J K J } K Y I I ` j J ` ` C s j K J Y ' U J j ",
"K K I [ <.{ J J { { I E { ) ) C U L A L ! A K ,.1.{ j C ` ) ` I K ] ` J J ] ) ` E E I I g N P Y C I { P I 0 U ' I Y k I I ` J J ",
"R K f g h E ] P E I s K N r { ] D I L j ' D r E { E N I { ` K C K L N K { { ` J J Q ) ..K d P ! J C P I ` J K I J U K j 0 f J I ",
"M f J ` r { <.I K L ` ` J h J Q J j I A ` I Y ` E I P K A K E E L Q K I J Z J ..) J [ K K j J Y P j h N I U K J ` j x j j 6 x J ",
"P I E N K I ` } I Q I J ` I f N ) K J U j I N j E ` K K J J P ] E ] ] ` J ) P ) ] J ] E { L ` U j C I ` Y L U K j j P P ` P I j ",
"{ J { Q P I Z I ' h j P ) P ` P x K { } P ` N E E Q I ` ] Q K ` ` ` 2.I P J P C j P K K { { ` j J P ) P K P U K ` f j j ` } x j ",
"I d ) J j Z P P J P P _ ) h ` ) I J A L Y { { ` I ] ` j r ] ..` ! I ` ` J ) Z C I ` E K K ' J } J J J s A ' Y I x j j U j j j K ",
"J J J ) j j _ J ) ) } ` C P I ) U } ` ' I j P I N E ` E J K K x j ` ` *.j C K P I E J K N I I ] N P _ J ) 2.P L g ` j j t d j d ",
") P P J _ P J ) ) J P ` Z ) ) J P P ` Y ) ` j N j ` ` ] ) K E j J ~ I C ' ) ) ' ) I M M ` E C N I P Z C Y ` j U J P ` I 0 k J 8 "
};
