/* XPM */
static char *_3659_3fce09516c16e50eec5d258373c39a2b15852030d2e4a9a92c12427de0a1769f[] = {
/* columns rows colors chars-per-pixel */
"64 64 235 2 ",
"   c #030400",
".  c #0A0100",
"X  c #020D00",
"o  c #0B0D00",
"O  c #130000",
"+  c #1A0300",
"@  c #140B00",
"#  c #1B0E08",
"$  c #031700",
"%  c #1C130A",
"&  c #1A1605",
"*  c #1E1411",
"=  c #1F1C11",
"-  c #250903",
";  c #241102",
":  c #2B140C",
">  c #2C190C",
",  c #231709",
"<  c #391B0C",
"1  c #251C14",
"2  c #2A1C15",
"3  c #311D17",
"4  c #1C360D",
"5  c #1C2711",
"6  c #1E3812",
"7  c #112D04",
"8  c #23220D",
"9  c #29290C",
"0  c #292314",
"q  c #2D241B",
"w  c #292818",
"e  c #352316",
"r  c #312A17",
"t  c #33251C",
"y  c #332A1D",
"u  c #3E291B",
"i  c #283A18",
"p  c #34321C",
"a  c #363519",
"s  c #3C200A",
"d  c #352C23",
"f  c #3A2D22",
"g  c #382722",
"h  c #353323",
"j  c #3C3325",
"k  c #3D342A",
"l  c #3A3A28",
"z  c #471909",
"x  c #42220E",
"c  c #432B1B",
"v  c #462817",
"b  c #522D1C",
"n  c #53311E",
"m  c #44341B",
"M  c #64361F",
"N  c #462F24",
"B  c #423125",
"V  c #423925",
"C  c #43352B",
"Z  c #433C2A",
"A  c #4D3628",
"S  c #5B3629",
"D  c #583628",
"F  c #453930",
"G  c #4A3D32",
"H  c #593C33",
"J  c #663826",
"K  c #6C3D30",
"L  c #2C441F",
"P  c #2D4523",
"I  c #3C4C24",
"U  c #394926",
"Y  c #38532B",
"T  c #3C5835",
"R  c #47472B",
"E  c #53422A",
"W  c #44542D",
"Q  c #4C4333",
"!  c #484C38",
"~  c #534A35",
"^  c #55453B",
"/  c #574737",
"(  c #495A36",
")  c #57573A",
"_  c #66432E",
"`  c #654635",
"'  c #65483A",
"]  c #694938",
"[  c #7A4C39",
"{  c #6A553E",
"}  c #79432B",
"|  c #456536",
" . c #566B3E",
".. c #4D733B",
"X. c #4B7335",
"o. c #51763E",
"O. c #537A3D",
"+. c #584E43",
"@. c #5D5543",
"#. c #5C5A44",
"$. c #694F43",
"%. c #655A48",
"&. c #7A5747",
"*. c #73564C",
"=. c #4A6246",
"-. c #516C45",
";. c #576847",
":. c #537542",
">. c #567C43",
",. c #597D45",
"<. c #5A744E",
"1. c #5B7D4A",
"2. c #587748",
"3. c #5E7754",
"4. c #636A49",
"5. c #69734C",
"6. c #647B4E",
"7. c #62744C",
"8. c #786957",
"9. c #637451",
"0. c #647C54",
"q. c #6B7C54",
"w. c #6B7B5A",
"e. c #6A7555",
"r. c #757D5D",
"t. c #6F6150",
"y. c #8A563E",
"u. c #93573E",
"i. c #834C38",
"p. c #895947",
"a. c #945C45",
"s. c #955952",
"d. c #81534F",
"f. c #A25E52",
"g. c #86634F",
"h. c #956246",
"j. c #9C654B",
"k. c #95644B",
"l. c #8A6554",
"z. c #866754",
"x. c #956452",
"c. c #936857",
"v. c #9C775E",
"b. c #8A755B",
"n. c #A9644B",
"m. c #A96957",
"M. c #A8745A",
"N. c #B3755D",
"B. c #BA745B",
"V. c #B26A5B",
"C. c #996F63",
"Z. c #987566",
"A. c #8A7E71",
"S. c #887A60",
"D. c #B46C63",
"F. c #A67E6B",
"G. c #B67A63",
"H. c #BE7672",
"J. c #A96A63",
"K. c #5B8345",
"L. c #5E834B",
"P. c #5E894C",
"I. c #5D8B47",
"U. c #5F8351",
"Y. c #5F8B50",
"T. c #618546",
"R. c #61864D",
"E. c #638A4D",
"W. c #69894F",
"Q. c #638847",
"!. c #65924D",
"~. c #6A914E",
"^. c #638552",
"/. c #6A8454",
"(. c #658B53",
"). c #698D55",
"_. c #6C855A",
"`. c #668C58",
"'. c #6A8D5A",
"]. c #708D55",
"[. c #72855C",
"{. c #738C5D",
"}. c #708657",
"|. c #669152",
" X c #6A9255",
".X c #6D9956",
"XX c #6D935B",
"oX c #6E995A",
"OX c #679258",
"+X c #729457",
"@X c #71955D",
"#X c #729A5D",
"$X c #729956",
"%X c #74A25E",
"&X c #6EA059",
"*X c #6D8C61",
"=X c #728D63",
"-X c #778961",
";X c #6F9460",
":X c #6D9860",
">X c #739562",
",X c #7B9465",
"<X c #759B63",
"1X c #799D65",
"2X c #759268",
"3X c #7A956B",
"4X c #7B9D6A",
"5X c #769D68",
"6X c #7BA165",
"7X c #7DA46A",
"8X c #76A164",
"9X c #84946B",
"0X c #928375",
"qX c #849371",
"wX c #AC826E",
"eX c #B8856D",
"rX c #BD8C79",
"tX c #80A46E",
"yX c #81A96B",
"uX c #83A473",
"iX c #87AA74",
"pX c #C5826B",
"aX c #C6876C",
"sX c #C88B77",
"dX c #D58E74",
"fX c #C3927C",
"gX c #CC947B",
"hX c #D6967A",
"jX c #A79B8C",
"kX c #DA9C8A",
"lX c #E49B86",
"zX c #D9A083",
"xX c #E8A489",
"cX c #E4A593",
"vX c #C4BAAE",
/* pixels */
"O.L.E.XXoX(.E.E.>.~.W. X#XQ.I.!. X.X.X!.|..X+XW.%X X~.!.|.!.K.Q.W.!.I..X.XI.P..XP.!.#XoXP.K.$X%X X$X(.$X%XK.|.R.K.K.XX(.E.:.K.(.",
"K.L.,.T. XXX|.R.$X!. XE.E.K.E. X#X X|.!.!.Q.#X~.W. X#X XI.E.E.~.~..X.X X8X.X.X|.E.$XoX|.!..X.X!.Q.|.|.L.Q.E.E. X>.X.P.E.oX$X(.L.",
"K.R.E.L.L.E.|. XXXR.K.E.>.Q.R.I.oX|.I.K.!.I..X%X&X!. XE.I.E.#X).$X).T.|. X|. X X$X%XT.T.|.$X~.R.|.|. X|.E.#XP.~.!.L.K.E.T.#X7XR.",
"(.E.R.O.E.T.|.#XI.).I.I.%XR.E. X(.oX$X!.Q.Q..X&X%X$XW./.,X/.0. .6.{.,X9X<XR.E.E.W.W.Q.$XE.XX<XK.E. XE.T.#X X).R.oX(.|.L.).O.XXI.",
"XXK.L.K.P.XX.X|.K.(.|. XE. X#X$X.X|.E.$X~.Q.|.!.|.9X5.) R a w 8 p R W 4.9X{.].#X$XE.Q.!.K.R.1X#XI.T.|. XE.E.K.>.#XE.P.E.R.E.E.E.",
").T.L.T.E.#X~.R. XT.I. XQ.I.~. X#X#XE. X~. X!.E.W.o.r r r j d d r r 9 , U 5./.+XT.E.K.O.Q. XXX|. XXX X.X X|.I.K.E.K.E.E.>.E.E.L.",
" X,.(.E.L.R.E.E.R.|.!.$X XI.I.R.#XE.E.~. X%XoX#X$X{.) V j y y q q t p V a & R 6.].W.E. X!..X(.P.E.E.|.#XE.T.K.$XE.O.K.L.(.$X(.).",
"R.R.>.L.R.#XP.O.P.W. X~.R.~.E. X$X X$X X!.~.@X#X{.[.4.Q j j h y q t C V Z m a R {.<X|.%X.XR.K.E.R.yXW.O.>.I. X#XE.I.K.(.E.R.).).",
"E.R.E.(.E.).<XOXR.%X.XO.|.E.K. X~..XE.Q.!.(./.,X4.a ~ ^ B f f d q d k k g j Q a ) [.6XoXE.|.W. X XE. XR.|.E.E.E.(. X XL.(.#XE.I.",
"(.(.).L. X).#X$X|.~.R.|.|.$X XT.$X$XO. X|.#X/.q.4.R G ^ C B f f g d h q 2 g C y a q.@X|.!. X$XE.#XP.Q.|.W.|.R.$XR.!.E.P.(.R.).R.",
"R.E.XX$X).(.I.E.|.T. XL. X#X X XI. X(.$XP.@X;.h ! %.^ G G j C f g q q q q 1 2 1 8 ) /.K.$X$X(.E.R.X.$X X X#X|.|.E. X X|.O.E.(.E.",
").#XE.1X#XE.R.XX$XE. XE.E.K. X#XE. X$X|. X_.W h Q @.%.G C G k j g q w q 1 1 * 1 > , }.+X.X X|.P.K. X#X X!.E.).!.E..X$XE.R.).K.XX",
"(. XE.XX). X X$X|. X|..X~.E. X.XoX(. X X X=XT q t Q @.~ ~ R V C f d 0 w % % # * e , 7.W.$XI.|.oXK. X.XK.!.6X6X X$X$XE.I.).R.XX@X",
"O.,.E.XXXX#XW. X X%X7X~..X#XE.|.#X#X!.).@X_.l k d t ^ ) ) ~ Q V f t 1 & # , 1 # e , ) W.#X#XOX|. X~.K. XE. XE.K.(.#XE.).E.T.R.I.",
"E.XXR.$X#XE.L.$X).E.#XR.T.|.XXT.#X#X X#X<X6.i d d 2 g @.@./ ^ G F r & o # # * * 0 8 W W.+X+X).T.T.E.#X$X#X|.!.P.#X$X|.|.R.K.R.T.",
"+XT.(.I.).K.E.T.~.E.R.).$X|.E.|.oX$XW.#X@X_.+.+.^ F G %.^ G G C f k , w t k d d d r Y ].+X].+X@X(.|.|.|. X).6X XL.L.(.(.$XL.(.R.",
").R.@X).T.K.E.|. X|.I.<XyX#XoX X|.~.).#X].6.#.%.$.8.jXjXvXA.C +.8.R { 9Xz.] ~ j f 0 W ].W.E.+X#X). X XR.L.).<X|.E.T.L. X(.(.,.XX",
"E.~.$XI.R.6X$XyX6X).).$X|.L.oX#XE.K.).#X1X;.~ +./ %.0XA.jX8.G %.t.' *.b.b.{ ~ Z B h R +XtX<X].'.(. X XXXR.#X<XR.>.(.<X(.^.K. XL.",
"W.~.|.W.$X6X$XK.!.$XXXP.K.K.E.#X X!.I.XX4X( X , > > O O   O e e @ > > u n a p y k l W /.).O.#XXXR.$XE.(.#X X#X@XXX@XL.,.(.XX(.,.",
"R.E.,.T.O.|.6XXXR.|.6X XE.XXoXXX|.E.|.(.'.W . ^ $.$.$.] K ` ` ` ] ` ` S n x ; . 1    .,XW.+X(.(.E.(.1X X XXX1XT.E.E.E.6XK.,.XX`.",
"R.L.O.XX).$X<XXX|. XL. X X.XE. XE.(. XT./.9 u Z.C.g.l.c.x.x.h.h.k.h.h.h.u.[ ] c %   <.>X5X<X).+X(.R.$X).E.XXE.R.>.XXI.XX7X(.>.L.",
",.T.).E.XXE.XX#X XoX|.XXE.E.#X#XXX(.).6X,X  / Z.{ D S H [ p.j.j.j.h.h.h.u.y.y.] . X ( ;X1XE.E.@X#XE.L.@X|.XX,.K.R.R.T.L.(.(.L.|.",
").E.|.XX<XXXT.(.E.(.oXE.|.K. XK.(.K. X5Xw.  { l.H S > - < ] p.h.p.[ n x n n ] H . X *X^.,.~.P.(.$XXX XXXR.).T.R.,.T.E.R.E.(.).E.",
"#XE.O. XR.E.6X(.E.|.XX<X$X#X X<XQ.R.(.^.0.  8.wXp._ A - N S p.a.i.J x + - < n N   % 3.).|.7X|.E.7X7XE.<XXXT.E.L.L.).E.E.).XXE.L.",
").K.E. X).E.#XXXE.(.6XoXK. X#XoXE.T.,.'.<.  g.rXM.j.p._ J M p.n.y.M n x J A p./ . =.*XXX).E.O.K.@X+XXX#XXX).E.<X(.E.).L.|.I.XX).",
"E.).E.XX XXXXX$X#X(.XXK.$XXXE.#X).<XK.(.<.  g.fXeXM.j.h.[ i.f.n.h.} J J i.p.c.E   ;.qXXX|.|.). XR.Q.K.K.T.L.$X6XR.1X1X X1XL.XXT.",
"^.L.XX).(.<X XXX<X#X#X X|.$X XXX].@X(.'.9Xo $.fXdXaXeXN.m.m.V.D.n.u.a.u.h.j.v.m   =X'.R.+XW.+XT.(. X|.E.OXE. X@X X+XT.L.T.K.XXE.",
"L.$X#XE.#X$XXXL.<XXX|.XXE.!. XL.2.@X$XXX>Xa A rXdXhXdXdXD.V.D.sXB.n.V.B.N.N.Z.. U ,X1.o.R.@X).#X).XXXX<X).L.XX(.6X|.E.(.,.(.E.K.",
"(.(.O.K.).).L.,.R.I.#X<X|.(.(.K.(.XX XW.<XW ; wXgXhXhXhXeXN.pXlXdXn.n.eXpXaXb.  /.+XK.K.<X'. XXXXXL.,.).).L.XX X^.XX Xo.R.R.E.>.",
"L.(.(.).(.#XK.$X$XXXE. X$X%XE.#X7XOXR.XX7X[., z.fXzXhXeXeXaXlXxXhXaXM.n.pXeXE 5./.T.W. XR.(.(.XX(.(.).K.OX(.,.,.E.L.(.#XT.@XXX#X",
"XXR.@X@X(.(. X<X(.XXXX X(.E.6X6X|.1X7XXX(.3XQ A wXfXwXwXl.p.fXcXxXeXv.b.M.M.9 q.@X).@X#XL.8X>.(.XXR.K.L.(.K.(.(.L.OXL.XXOX XXX).",
"<XE.XXOXL.).L.#X$X@X6X<X|.O..XoX<XR.E.$XXX,X%.O z.z.x D D - K G.a.z n s z.{ R /.tX5XE.OXOX(.XX(.XX(.(.XXR.E.<X<X).(.:. X^.XXE.).",
"`.(.'.>X(.(.R. X$X X6X).E.<X).OX<X|.L.OX+X}.@.+ N 3 N N S J s.J.p.J ] v N t W {.$X+X).E.(.).<X(.#X(. XL.(.T.(.(.E.(.@X(.L.OX@XOX",
"XX>XOXL.<XL.).(.).XXL.K.T.#X).<X5XU.OX,.(.].4.@ g g ' C.s.s.f.D.n.s.C.H , ! w.].+X$X).>.(.$X>XOXL. XT.K.R.E.).E.L.tX(.L.E.L.>.).",
"`.(.`.(.(.(.L.E.7XXXR.K.).5X(.XX(.,.:XE.E.).qX#.. : H C.s.J.H.H.J.J.*.: y w.{.>X(.E.|.OXR.,.).E.XXXX(.>.(.OX).XX X X(.XXXX).,.K.",
"L.2.K.<XXX(.XXXX).|.XXXX@X6XOX(.^.XX(.K.XXXX>X-XO # g K d.i.s.s.c.*.3 - p -X,X#X(.E.T.$X].^.R.).(.(.(.(.R.XX#X1X5X).(.(.(.>.R.(.",
"OX>.,.L.L.L.(.5X).XX(.(.XXT.XX'.^.<X<X(.T.XX>X[.G : 2 t A S H ] d.H 3 @ W q.'.5XXX(.K.K.^.].E.W.XX(.(.K.L.>.(.OX(.(.`.K.OX,.R.R.",
"L.^.(.U.K.).(.(.(.T.(.).L.5X<X(.U.'.#XXX(.oXXX[.8.q 1 2 : C G F g t 1 w q./.(.(.(.Y.OX(.(.(.).E.(.(.(.XX<X'.(.OXOX(.XX(. XXXXXR.",
"U.^.`.'.XX(.(.L.`.XX(.@X<X(.(.L.).R.W.W.L.E.Y.2Xr.Q q q 1 q 0 % q 2 8 _.,X^.L.:X`.5X<X#X1X(.^.XX(.K.(.5X5X'.(.(.L.^.U.(.U.L.XXU.",
"K.(.'.U.(.,. X).OXE.#XXX|.(.(.(.#X).R.tXOXY.5X*Xr.r.h   % .   5 5 o W -X,X;XU.Y.`.<X:X@XW.].E.`. X'.:.(.(.^.(.U.XX>X,.L.L.L.).^.",
"`.(.,.'.R.L.L.(.7X>XL.XX(.L.^.(.@X9XiX<XL.Y.XXOX{.9X#.l Z V Q 0 i ( /.'.).^.L.`.(.^.`.L.E.K.).7XU.(.U.`.L.,.>.'.>XU.2.U.XX`.,.U.",
"'.:X;X^.'.E.(.(.L.(.oXXX'.5X5X<X<XoX'.XX^.(.>XXXW./.q.9.e.e.qXw.9._.)./.L.<X`.`.'.U.,.'.E.P.XXXXK.U.(.'.,.U.'.:X`.K.(.`.K.U.`.(.",
"^.'.`.L.(.).K.(.`.(.'...'.`.`.XX XXX(.XX^.'.L.|.R.W.{.>X( W /.^.1X).Q.).).U.OX{.1./.'.).K.OXL.;XU.`.(.XXU.`.(.L.:.L.U.>.L.XX<X:.",
"XXXX(.:XR.OX(.(.XXK.K.^.,.L.5X).|.OX8X|.4X>X).T.XXT.L.<X;.6 R.,.^.|.9X#X'.,.^.'.'.@X(.R.oX(.(.:X`.(.(.L.`.XX2.L.(.L.(.>.:.^.<XOX",
"'.:X2.(.XX^.(.L.L.`.'.(.XX'.XX(.OXY.K.(.(.<XXXL.R.XX`.2X^.i '.XX'./.).).R.,.2.^.'.'.#XR.^.1X).:.(.U.(.Y.`.^.(.>X(.XX`.^.U.:.(.(.",
"L.(.`.(.`.,.OX(.U.,.L.`.'.^.L.XXOXXX(.XXXX(.;X<X>X*X4X'.-.P '.'.4X<.<.@X,.1.'.'.^.^.XX).).XX@X>X(.U.U.(.`.L.(.(.1.K.'.L.`.`.,.(.",
"(.^.:X>X<X'.(.^.;X'.'.(.XXL.@X*X>X^.).].XX(.;X-.| Y P P 5 $ i 4 Y P 6 6 | '.@X^.R.@X(.>XXX).R.@XL.U.XX(.(.;X`.;XU...(.`.L.L.Y.;X",
"`.K.(.XX>X^.<XXX:X:.`.<X;X<X'.).'.'.).(.E.<X2.P Y =.*X3.;.P 3._.0.w.<.2.).1.XX5X@X)...K.^.^.(.@XL.^.'.`.L.<X`.,.L.;X(.,.U.U.U.>X",
"'.1.`.L.>.>X(.^.^.(.E.,.7X7XOX(.'.XX).W.E.XX'.'.4X1X_._.=.T U.<._.^.uX2X(.XX<X:X^.`.L.,.OX#X(.(.L.Y.(.'.>.2.^.,.XX|.R.,.K.:.U.`.",
"`.(.^.L.^.(.`.:X;X(.>XOX).R.OX^.'.(.).XXXX).2X'./.).1.U.| T `.'.`.,.(.'.;XU.(.XX:.^.XX(.,.(.XXXXK.:.^.^.U.XX,.U.XX(.(.(.L.;X`.L.",
"XX'.,.5X^.,.(.5X5XR.(.,.L.XXR.(.>X).>XOX|.@X`.'.`.3.1.*X-.Y ,X>X`.^.^.`.>X7X'.'.XXXX<X`.(.(.'.L.:.U.,.K.:X;X'.>XOXXX(.U.U.(.U.U.",
"XX(.U.'.:X(.^.U.1.L.'.'.iX5X).<XOX(.XX<X$X).'.^.XXU.0.2X( Y '.*X;X(.:XU.U.5X^.L.:XK.(.;X<X'.(.(.XX(.'.`.`.1.(.^.'.XXU.^.`.;X(.L.",
"L.U.(.^.U.XX'.'.L.(.^.L.XX(.XX(.(.|.^.>X4X4X2X(.:X>X3.2XP -.>X/.`.`.'.;X^.`.:.L.2X<X^.(.5X^.(.>X#XOX>X(.2.L.'.'.^.@X@X1.>.^.'.^.",
"`.XX<X^.,.(.^.XX:.(.>XOXU.'.^.OXE.(.>X*X4X4X7XXX>X;X=X-.X 0.0.1.1.'.;X:X`.XX:X,.<XXXXXU.XX@X'.'.1.,.2.^.:.,.<X'.^.R.1.^.U.2X(.^.",
"^.1.(.7X2.L.^.XX`.^.(.U.^.XX).@X1X X`.>X'.6.,X;X<XuX<.4 ( P *X_.<X2X'.=XU.(.'.XX(.>XXX<XXX).'.>X(.^.^.'.^.^.<.U./.,.^.1X5X>X'.'.",
"<XXX'.>X:X:X>XK.1.K.>X(.U.'.R.,.OX>X>X>X>X^.^.'.'._.X *X3X7 | '.).^.'.^.U.1.,.(.>.'.5X:X2X>.2X^.R.).'.6.^.^.1.2.'.'.R.XX{.>.<.^.",
"^.L.;X`.(.'.`.`.7X5X`.;X<XXX'.2X+X@X`.;X^.>X'./.*XX <.}.=X_.X <._.<X'.^.'.(.XX`.XX^.(.P.'.'.'.'.).(.^.(.`.^.1.5X;X/.1.^.*X_.2.>.",
"2.U.;X5X;XOX^.U.(.;X'.`.;X1.R.(.R.2X`.(.(.L.>X^.i ( >X,.@X4X-.6 *X'.U.'.<X>X'.(.XX5X^.-.;X^.^.'.'.'.2.*X'._.^.<.2.L.'.'.<X'.1.^.",
"`.'.2X(.L.1.>.`.:.XX7X`.^.XX@X^.>.'.`.U.R.R.2XY i 2X{.(.R./.2XY | '.^.>X^.`.<X'.>XXX`.,.^.>XL.2.^.).^.^.'.1.1.^.| L.^.'.'.'.^.`.",
"'.1.^.1...;X;X;X`.'.5X5X@X).).@X'.>.`.XX(.@X| 7 3.;X'.(.>X^.^.=XX '.4X'.`.`.'.(.>XXX5X;X>X2.^.'.>X@X`._.^.1.^.'.>X'.1.'.'.'.^.^.",
"^.^.L.^.;X;XU.`.Y.`.U.`.'.1.`.@X(.1X(.1.*X>X*X2X;X>X'.>X^.>X>X4X3.^.4X^.`.`.L.^.'.,.5X<X^.).'.^.1.(.'./.*X,.1.^.2X^.1.^./.:.-.'.",
"^._.^.'.`.U.L.;XU.2.XX`.'.,X>X'.^.@X'.>X'.'.`.;X;X`.#XXX2.^.>X'.;X*X4X`.U.U.^.:XXXXX1.XX>X2X1.@XR.>X<X'.2.^.^.1.:.2.R.2.^.^.'.XX",
">.2.'.^.(.`.XX`.;X^.(.'.'.'.2XR.OX@X/.).5X>X*X1.0.^.).#X5X(.`.>.L.5XXX'.'.:XXX'.L.,.).(.'.R.).'.R.>X'.1.^.;X{.1.| (.| 1.'.1.^.'.",
"^.;X^._.;XU.U.U.U.U.<X2X^.R.2.XX).>X*X1.2.,.>X5XU.^.].W.(.(.;X5X*XU._.>X;X^.<X>X<X'.:X2X:.^.6.^.'.^.4X'.^.'.'.'.(.1.'.^.1.'.'.^."
};
