/* XPM */
static char *_5546_776dde1d33f913eedb132701496106f3ce56356be7ef0f433415890c0530dfd2[] = {
/* columns rows colors chars-per-pixel */
"64 64 237 2 ",
"   c #010400",
".  c #0D0000",
"X  c #000E00",
"o  c #070909",
"O  c #170C05",
"+  c #001400",
"@  c #001E00",
"#  c #181308",
"$  c #1E1715",
"%  c #23170B",
"&  c #35130A",
"*  c #271A17",
"=  c #34110F",
"-  c #0B2601",
";  c #112C05",
":  c #1C380E",
">  c #182912",
",  c #1E3A14",
"<  c #25251A",
"1  c #392618",
"2  c #223818",
"3  c #222E0A",
"4  c #281E28",
"5  c #2B2624",
"6  c #352A25",
"7  c #352C2A",
"8  c #3C2D2A",
"9  c #392A25",
"0  c #3B312D",
"q  c #353624",
"w  c #392E31",
"e  c #3D3331",
"r  c #442817",
"t  c #4B3319",
"y  c #442C2C",
"u  c #452B26",
"i  c #44332C",
"p  c #4C362A",
"a  c #593B29",
"s  c #4C3433",
"d  c #4C3A34",
"f  c #463936",
"g  c #543D36",
"h  c #543C39",
"j  c #513333",
"k  c #442E30",
"l  c #284419",
"z  c #31511F",
"x  c #384829",
"c  c #3A592B",
"v  c #374B2B",
"b  c #3E622D",
"n  c #4A442D",
"m  c #4A4836",
"M  c #534336",
"N  c #55443C",
"B  c #5A443D",
"V  c #5D4C3F",
"C  c #574938",
"Z  c #435A39",
"A  c #575536",
"S  c #654C2A",
"D  c #664839",
"F  c #65523C",
"G  c #78542E",
"H  c #466737",
"J  c #52683A",
"K  c #4D723B",
"L  c #4B7335",
"P  c #51753E",
"I  c #53793E",
"U  c #587C3F",
"Y  c #63713E",
"T  c #574B46",
"R  c #515246",
"E  c #614440",
"W  c #634C42",
"Q  c #6A4941",
"!  c #6A5144",
"~  c #66554B",
"^  c #6E5A4B",
"/  c #645545",
"(  c #745946",
")  c #72574A",
"_  c #665B55",
"`  c #785D54",
"'  c #526D44",
"]  c #586948",
"[  c #537542",
"{  c #567B43",
"}  c #597D45",
"|  c #5B7D4A",
" . c #57744B",
".. c #586851",
"X. c #5F7E51",
"o. c #5E7451",
"O. c #4F7240",
"+. c #676848",
"@. c #7D624D",
"#. c #627449",
"$. c #627D4C",
"%. c #687B4A",
"&. c #6B6355",
"*. c #796656",
"=. c #647D53",
"-. c #6A7858",
";. c #757755",
":. c #717948",
">. c #6B6966",
",. c #6C7E61",
"<. c #777372",
"1. c #8E6934",
"2. c #825F59",
"3. c #836553",
"4. c #846D56",
"5. c #8D6D5B",
"6. c #86695A",
"7. c #8D755F",
"8. c #88785A",
"9. c #94755D",
"0. c #8E6B51",
"q. c #8A6961",
"w. c #887766",
"e. c #977866",
"r. c #8D7A71",
"t. c #9D7D70",
"y. c #A37D6C",
"u. c #A07B66",
"i. c #59833E",
"p. c #578342",
"a. c #5C8346",
"s. c #5D834B",
"d. c #5E8A4B",
"f. c #5C8946",
"g. c #5F8351",
"h. c #5F8A51",
"j. c #61864D",
"k. c #638A4D",
"l. c #67894C",
"z. c #66924E",
"x. c #68914F",
"c. c #638652",
"v. c #6A8654",
"b. c #658B53",
"n. c #698D55",
"m. c #65855A",
"M. c #6A855D",
"N. c #678C59",
"B. c #6B8D5A",
"V. c #718E56",
"C. c #738D5E",
"Z. c #76865B",
"A. c #669152",
"S. c #6B9255",
"D. c #6D935B",
"F. c #6E995B",
"G. c #6B9856",
"H. c #709557",
"J. c #71955D",
"K. c #729A5C",
"L. c #75955A",
"P. c #76A15D",
"I. c #6C8B60",
"U. c #748C62",
"Y. c #7A8A64",
"T. c #6E9760",
"R. c #739562",
"E. c #7B9465",
"W. c #759A63",
"Q. c #799D65",
"!. c #7B976C",
"~. c #7A9D6A",
"^. c #759469",
"/. c #7C9970",
"(. c #7AA165",
"). c #7DA26A",
"_. c #77A161",
"`. c #9A8558",
"'. c #898768",
"]. c #94826B",
"[. c #9D8267",
"{. c #87986B",
"}. c #998877",
"|. c #999574",
" X c #8D9970",
".X c #A5846A",
"XX c #A5886B",
"oX c #A58371",
"OX c #A58E75",
"+X c #AB8C73",
"@X c #AB8A79",
"#X c #B08D74",
"$X c #AD947A",
"%X c #AB9578",
"&X c #B6987B",
"*X c #A8906E",
"=X c #81A36C",
"-X c #82A96B",
";X c #82A672",
":X c #98A678",
">X c #A6A376",
",X c #AD8C56",
"<X c #C6997A",
"1X c #C1A36D",
"2X c #BA9485",
"3X c #AD9286",
"4X c #9FB380",
"5X c #A9A482",
"6X c #BAA688",
"7X c #A3B182",
"8X c #B6B68C",
"9X c #BDA998",
"0X c #BFB793",
"qX c #BEB6A1",
"wX c #C59B8A",
"eX c #C6A992",
"rX c #C7B597",
"tX c #D7B697",
"yX c #CDAF8D",
"uX c #E0BD9F",
"iX c #D9BBA8",
"pX c #BEC29D",
"aX c #CCC09A",
"sX c #D9C7A6",
"dX c #CECCAD",
"fX c #E6C9AB",
"gX c #E0D2AB",
"hX c #E6CDB1",
"jX c #E9D7B5",
"kX c #F2D4BA",
"lX c #E7E3BB",
"zX c #F7D8C3",
"xX c #F9E5C8",
"cX c #FFFCD5",
"vX c #FFF6D7",
"bX c #F5EFCC",
"nX c #FFFDE4",
/* pixels */
"I s.h.D.L.v.k.d.p.z.S.x.K.f.f.k.z.G.G.x.S.L.n.n.P.z.z.z.A.z.i.f.z.S.j.H.K.j.f.G.a.A.P.G.z.i.K.Q.H.H.x.H.K.a.S.k.f.I G.b.b.U } b.",
"a.s.p.d.V.S.A.d.G.z.H.l.l.i.f.K.F.H.A.b.v.V.R.B.n.H.K.z.f.z.G.l.S.K.S.G.P.A.K.z.A.G.H.d.i.P.H.l.j.x.n.d.k.k.k.A.p.L s.j.G.J.k.j.",
"a.d.k.s.a.k.S.S.F.k.d.x.p.f.k.f.F.b.v.$.-.] e x Z  .B.S.d.a.D.A.z.z.d.A.G.S.G.A.F.(.d.a.z.K.S.k.S.k.G.l.k.K.k.k.b.d.a.b.j.K.).k.",
"b.k.d.I k.k.k.K.a.b.a.s.H.z.d.A.v.J.U.] m e 6 < # > v ' /.^.T.h.H.P.F.W.K.j.a.z.k.k.d.J.A.A._.p.k.G.k.d.K.S.z.k.H.b.A.d.n.} S.a.",
"S.s.j.a.j.S.S.S.a.l.k.K.S.D.F.K.H.Z.;./ R e e 7 5 $ o o R -.X.I.H.x.K.K.P.x.x.P.G.k.s.b.d.b.P.F.a.k.A.G.k.l.a.p.K.z.s.d.j.k.l.k.",
"n.s.a.j.k.K.z.k.S.k.j.x.d.s.H.v.7X5X&._ T e e 5 5 5 4 4 o   , ' W.l.z.P.K.K.x.x.f.z.f.U j.F.A.z.S.G.F.H.S.z.s.i.k.a.k.b.I k.k.s.",
"S.| k.j.j.j.k.k.l.S.k.P.H.l.#.{.lX5XT N e f 8 7 5 5 5 4 4 5     ] !.n.K.H.P.K.i.G.z.k.S.v.S.S.a.k.k.z.K.k.f.a.F.k.I a.d.b.L.k.S.",
"d.j.} j.j.K.f.I a.l.H.k.k.V.Y rXgX].M f T T e 7 5 w w w w 4 w R > ] {.C.W.x.S.P.H.K.x.P.H.k.p.z.j.-Xk.L { a.H.K.k.a.{ A.k.k.n.b.",
"b.j.j.n.b.S.P.S.j.P.S.} V.Y >XgXrX].F &.~ T f f s i i f w R >.R 5 ..-.v /.D.p.D.A.A.(.F.z.l.n.A.A.k.S.k.k.k.k.k.z.S.S.a.b.K.k.a.",
"b.c.n.j.n.S.F.H.S.S.l.x.l.:.gXfX2X$X3X+.T T 8 d d j N f _ _ O $   <.>.   X!.T.h.G.A.S.S.z.H.S.v.K.k.a.S.k.S.k.G.k.k.k.k.b.k.n.k.",
"c.c.J.J.S.k.a.j.z.d.b.$. X8XsXtXsXiXr.. 5 5 f g C D W _ >.T 5 <   >.<.  ;.{.v.G.F.k.k.a.H.P.x.j.k.L H.G.G.H.S.S.k.G.S.k.P n.k.b.",
"S.K.b.(.H.l.l.H.H.A.A.L.8XrXyXsXsXt.% 9 f N T Q ( *.^ r.s O 8 O $ w w 7 < ,.R.G.K.x.P.k.K.x.l.n.a.S.K.S.A.k.l.k.k.F.F.k.k.n.a.S.",
"b.n.b.G.S.G.H.L.A.A.v. XrX6X%XrXw.* 8 0 T ` ( ( 3.*.w.}.. & r p * % u f * m C.H.z.S.A.k.K.z.A.H.a.S.S.a.k.(.(.G.H.H.z.a.k.j.S.L.",
"I a.k.D.S.H.c.n.N.(.{.Z.>X%X4.r.m i i W ^ 3.5.e.7.! 3X}.O g Q ) j 9 s g m % ] '.L.S.a.k.H.H.A.D.S.x.a.G.k.G.k.f.k.W.k.x.k.k.d.s.",
"k.S.s.H.P.k.s.J.N.D.Y.'.'.*.w.*.d M ) 0.5.u.y.e.@.@XqXr.p T h h T 9 h T N d O ..~.n.d.z.x.K.S.p.f.k.H.H.K.S.S.a.K.K.n.k.k.a.k.j.",
"G.k.b.f.k.a.b.k.n.v.v.;.+.*.w./ M ^ e.u..XwX2Xt.eX9X}.~ *.r & 1 u s h W E C q 2 o.M.n.l.L.x.H.F.k.S.S.A.S.z.(.G.a.d.n.b.G.j.k.s.",
"S.j.K.S.d.a.n.l.S.n.v.Z.+.^ ~ F *.$X&X<XtXuXyXiX#Xt D ( 6XiXy.a s d B V Q T d 9 q ,.J.l.l.b.S.J.A.S.S.j.s.S.W.n.k.j.d.S.c.c.a.G.",
"d.z.K.a.j.Q.G.-X(.S.n.U.] +.~ / OXtXtXtXfXfXfX#Xt S @.a ( zXzX5.g u j B B N h k 5 m Z.L.(.K.K.B.b.S.S.D.j.K.K.k.{ k.R.c.k.s.b.c.",
"A.z.b.k.L.Q.K.a.k.F.K.v.J m V w.rXxXzXkXxXxXuX1.D a D u u 3XzX2Xr y y j B g s f e > ' v.S.a.K.V.j.L.b.k.K.n.F.L.G.L.s.a.c.D.c.a.",
"j.z.a.s.U n.).G.k.b.Q.C.Z.#.q |.hXvXvXnXnXkX,X1.G D i * h q.rX2.u D ) Q u 9 y s k < x C.n.S.b.n.k.b.(.S.B.G.(.j.b.j.k.~.s.} D.S.",
"k.a.{ G.S.G.W.G.A.H.s.D.U.Y.#.{.aXjXcXcXcXsX&X1.F 9 6 * ~ 2.y.D D q.2.Q = h j k i 0 3 -.{.W.b.J.k.j.L.A.k.D.k.j.{ S.s.S.).d.} h.",
"} a.n.k.D.c.J.K.S.H.k.F.n.=.^.Y.7XsXlXcXbX6X`.S r # . i ` e.u.5.u.2X2X& = E j k i i # -.=Xn.s.F.K.k.s.K.S.D.} a.s.k.j.s.k.S.s.b.",
"n.k.A.S.W.F.j.k.k.k.G.b.b.j.N.j.%.8XlXvXbX'.F n i j ` ` t.@X2XoXy.wXwX= ) E y y g C i m l.k.c.h.J.J.S.S.a.v.k.j.a.j.k.k.k.b.n.k.",
"K.k.I S.c.c.(.b.j.n.G.K.K.K.D.W.j.c.|.dXnXrX+.1 1 q.t.y.y.@X&XXXy.wXy.2.6.u k h D / M m v.).F.h.).(.k.Q.G.j.k.a.s.l.k.k.b.L.k.s.",
"n.a.b.A.n.b.K.G.k.l.(.H.i.S.P.F.b.c.K Z.gXdX*.7.eXrX.XoXu.XXXX*X.X#X0.5.3.D h h ^ *.d ] L.k.{ a.D.L.S.K.D.n.k.W.S.k.n.a.S.j.S.S.",
"k.n.b.S.B.G.S.J.K.v.G.f.K.H.d.F.N.T.a.} E.'.n hXcXbXeXXX.X[.XX*X*X&X.X3.( ! ! ) 6./ n I.V.z.B.D.k.j.s.a.j.s.G.).k.K.Q.S.Q.a.S.j.",
"h.s.S.S.k.Q.n.H.W.L.L.S.S.S.S.G.D.D.b.H.T.=.pXzXjXjXtX.X0.7.4.4.9.$XwX9.( ( 6.6.6.C ] v.S.b.n.j.b.S.n.k.S.k.S.K.S.G.j.j.j.s.G.v.",
"s.D.R.N.J.L.H.j.Q.G.n.H.z.k.S.a.U D.G.F.F.G.:X:X;.aXkXyX#X5.5.9.9.e.&X*X3.( e.@X*.A #.[ k.G.G.R.n.D.S.Q.n.a.D.A.Q.S.j.b.a.k.k.a.",
"b.h.U | n.n.j.} j.a.K.K.b.A.S.a.n.S.L.j.K.K.S.J.V. XsXhXtXtX#Xu.9.9.t.OXOX].%X*XA ;.$.a.F.b.D.J.L.s.p.b.S.a.D.N.c.D.S.K a.s.k.{ ",
"s.N.b.b.l.K.a.L.L.G.h.A.K.W.k.L.(.S.n.D.{.K.F._.f.>XbXtX>X&X6X.X8.4.8.].}.8.+.:.#.%.v.G.b.d.b.D.b.c.S.s.S.c.} } c.d.b.R.j.L.G.H.",
"D.h.J.J.v.l.S.K.b.G.D.G.A.k.Q.(.S.W.(.K.c.R.G.G.z.j.{.7X{.%.;.A '.;./ +.A A %.v.J.V.W.J.d.W.} b.J.d.a.s.b.a.b.b.d.D.a.D.S.B.J.n.",
"W.c.D.D.j.n.j.K.F.K.).W.S.I G.J.W.c.l.H.S.T.F.F.G.L.j.c.S.K.#.3  X'.Y.M.Z.C.E.n.(.Q.j.n.D.b.S.b.D.b.b.D.k.b.W.K.b.c.{ S.c.G.c.S.",
"b.N.B.R.S.c.k.S.H.G.(.b.b.W.n.D.W.b.j.G.D.k.k.A.W.j.n.K.J.v.=.2 L.Z.M.U.$.c.R.S.K.K.b.l.b.b.W.b.L.b.S.s.b.s.n.k.b.b.D.b.j.B.D.S.",
"B.W.S.s.K.s.n.c.B.G.s.s.a.K.b.R.W.h.n.I A.b.S.Q.b.L.b.Q.v.J.-.: v.R.s.b.+ H b.D.S.H.n.U z.H.J.S.s.S.s.a.d.k.b.k.s.=XB.s.k.d.} b.",
"N.b.N.b.b.c.s.b.=XS.k.p.S.(.b.T.N.| H.k.k.B.K.Q.S.s.l.S.n.U.o.2 -.W.{., c R.b.T.n.b.b.S.s.a.n.k.G.K.k.{ b.S.B.S.S.S.b.G.D.n.} a.",
"s.} a.T.R.A.D.G.n.S.S.D.R.Q.S.b.c.T.b.f.F.R.W.E.b.S.n.} M. .> 2 /.;XH l R.B.D.W.N.c.d.R.G.j.s.n.n.k.b.b.d.D.R.~.W.n.b.b.b.[ h.b.",
"B. .} s.d.c.b.R.b.G.b.b.G.j.D.S.c.W.~.b.j.z.L.n.b.W.=XJ.Z , ..+ I.H + v.n.j.n.W.T.c.g.s.c.b.j.n.D.b.b.a.s.} b.S.b.b.B.a.S.} c.c.",
"s.h.c.h.a.S.b.b.b.j.b.n.s.(.R.b.| n.~.G.n.L.V.B.b.W.W.' X ,...- ; - g.R.j.c.b.b.N.h.B.b.b.k.S.b.b.b.b.S.W.S.b.S.D.c.S.c.S.S.D.d.",
"c.c.b.B.S.c.b.s.B.G.c.K.R.c.b.d.S.j.j.j.j.j.b.R.D.~.' X -.U.q  ./.X.W.R.B.v.s.J.S.Q.R.T.Q.b.k.G.n.s.b.W.W.N.N.c.s.c.s.N.c.| D.h.",
"a.b.B.h.b.} S.b.D.c.K.D.b.b.b.b.L.S.j.=Xb.N.K.D.D.X.+ o.R.B., =.~.I.B.B.).D.s.b.b.W.R.W.b.S.c.B.B.b.[ N.N.c.N.d.D.T.| a.s.s.N.c.",
"N.c.| B.d.d.s.b.W.K.d.D.b.s.h.N.K.(.-X(.s.h.T.N.E.l ' !.R.B.+ o.m.n.b.B.N.N.} N.c.k.b.s.c.s.S.).g.b.c.b.s.{ { S.R.c.{ s.D.N.| d.",
"B.R.D.c.B.c.j.b.k.c.D.J.S.^.Q.W.R.K.b.A.h.N.T.R.c.[ c.{ V.2 ' C.| b.c.n.| D.D.b.D.a.p.S.b.j.D.S.| h.c.B.| g.B.T.b.s.N.N.| g.B.c.",
"d.B.B.d.c.S.s.c.B.b.B.K D.N.N.D.S.B.D.T.b.b.g.b.b.c.V.C.^.; [ c.E.n.j.B.N.c.N.D.s.j.k.n.s.S.h.D.c.b.b.D.N.N.N.| P s.s.{ s.G.R.{ ",
"T.B.c.T.k.S.b.b.D.a.| g.} s.^.S.B.D.^.N.W.L.b.j.L.j.c.=.Z 2 =.} l.S.(.E.N.s.N.b.D.G.k.k.D.b.c.R.N.N.c.s.N.S.{ s.b.h.N.{ { c.R.N.",
"N.T.} b.D.j.b.d.| B.B.b.B.B.B.B.B.g.b.c.A.F.K.s.a.D.c - v ; =.J.b.k.b.b.j.{ K b.b.n.T.c.k.~.N.[ c.d.c.c.N.c.b.R.N.D.b.c.g.{ b.b.",
"s.N.N.b.N.| B.b.h.{ h.n.b.N.s.D.T.B.N.D.D.b.D.n.D.[ - M.^.l [ R.).} s.D.{ s.B.D.c.c.D.B.b.B.D.W.c.b.d.b.B.| b.b.| | B.h.N.b.| c.",
"c.c.D.R.W.S.b.h.R.B.B.c.D.d.D.D.B.c.B.B.T.N.~.Q.C.: o.I.^.H v R.R.c.b.R.c.b.D.c.d.T.N.R.T.N.s.D.| h.D.N.b.T.B.D.j.K c.B.g.s.h.T.",
"b.s.N.D.R.c.R.D.D.{ N.W.T.W.D.n.n.n.c.B.h.D.N.R. .: !.M.M.c z ^.b.N.d.s.b.s.K.W.J.B.K | N.s.b.T.s.c.B.b.d.R.N.} | T.b.{ s.c.s.R.",
"D.| N.a. .R.c.c.c.b.h.} ).~.S.b.B.H.v.S.v.D.b.I.l ' I.X.B.W.; o.m.d.~.W.c.D.T.D.h.B.d.| H.R.n.c.j.c.b.D.{ { c.{ D.N.j.} s.{ g.N.",
"b.N.c.s.d.N.A.T.R.b.W.b.b.d.D.c.b.b.S.B.n.D.^.c.@ M.=.| v.v.z I.c.| B.D.A.c.N.R.O.c.B.c.| c.R.J.a.[ c.h.h.B.{ c.D.b.k.b.s.D.N.s.",
"B.N.} Q.N.} b.W.(.g.N.s.a.R.d.c.U.T.D.D.n.K.C.l c I.| c.C. .v /.B.m.| N.W.;XB.b.D.R.W.B.n.n.B.s.{ c.{ | R.T.B.J.B.D.b.c.s.N.g.h.",
"D.N.h.B.D.b.c.c.} s.D.b.;XW.D.W.B.c.B.^.J.B.B.c M.m.| H.W.{ : ^.R.c.R.g.h.W.g.h.T.a.b.J.R.B.b.n.S.b.D.b.N.| b.c.b.T.g.c.N.R.c.| ",
"g.d.b.c.c.D.b.N.g.b.g.d.D.B.D.N.I.l O.R.Q.~.~.B.I.B.j.n.{.P v B.c.B.B.I.c.B.[ | R.R.N.c.~.j.v.R.R.B.R.n.| | B.B.c.J.J.| [ c.B.c.",
"B.I.R.b.} N.N.D.{ b.R.b.s.N.b.B.H l ^.B.~.W.~.T.~.R.l.a.j.S.X.c.c.v.W.R.m.T.T.a.W.D.D.h.J.J.B.B.| }  .c.[ | W.B.c.j.| b.c.R.b.m.",
"j.| b.).{ s.c.D.b.c.c.c.c.T.b.B.- c.B.R.B.v.^.I.W.).W.Q.G.s.b.m.E.W.v.T.b.c.N.D.N.D.D.R.B.B.B.R.c.c.c.B.c.c. .g.v.| v.W.~.D.B.B.",
"W.D.B.J.T.T.R.| | s.R.N.s.b.c.[ =.^.R.U.T.c.c.N.v.B.R.=XL.D.N.N.Z [ M.c.| g.} c.{ D.Q.R.W. .W.X.j.n.B.| v.c.| { b.B.j.D.B. .| c.",
"c.g.W.N.N.B.D.B.~.W.N.S.^.D.b.W.E.D.B.R.j.W.h.X.R.~.J.s.A.R.D.c.+ B.U.c.c.b.R.n.D.c.N.c.B.B.v.R.n.b.c.v.B.m.s.W.R.c.| v.D.c.|  .",
"{ g.D.^.S.B.h.g.b.D.N.N.R.s.j.B.| Q.c.v.m.v.| : I.).T.| D.R.R.b z R.| R.~.^.N.b.B.~.h.O.I.c.c.B.B.B.{ B.B.c.c. .| =.B.B.W.I.| c.",
"m.B.R.c.s.| { m.{ T.;XN.c.D.D.c.} v.S.j.c.m.c H R.B.B.B.N.c.D.b | M.v.B.c.b.W.b.T.T.N.| c.J.| | c.B.m.c.B.| X.c.H | c.B.B.B.j.B.",
"v.c.c.X.K T.T.D.N.N.R.~.R.b.n.J.H.} v.n.B.B.,  .c.I.D.N.D.N.c.R.J.R.~.B.B.B.B.B.T.D.Q.D.R.| c.B.J.J.B.c.c.| c.N.R.b.| B.B.B.c.c.",
"g.c.c.c.R.T.g.N.c.N.g.D.B.| v.D.b.W.v.| B.c., ^.T.R.D.R.c.R.R.R.R.^.^.N.N.c.s.c.B.| W.W.c.c.B.c.| b.B.v.I.} X.c.R.c.| s.c.' [ B.",
"c.b.c.B.N.g.| T.h.{ B.b.B.W.^.B.c.I.J.J.M.c.K R.C.c.R.R.| c.W.B.B.B.~.N.g.g.c.T.D.D.s.D.W.W.$.J.$.W.W.B.| c.g.| [ | $.| c.c.B.J.",
" .| v.m.N.b.B.N.T.g.N.N.B.B.~.j.B.T.c.n.~.W.R.| j.} K.B.).m.c.| s.^.I.D.N.R.B.S.s.} B.N.v.c.B.B.j.R.B.| c.U.B.g.H c.H | B.X.c.B.",
"j.R.c.b.T.g.X.g.h.g.^.R.c.g.{ C.N.~.B.| | | W.R.%.l.n.n.M.N.R.W.D.c.c.W.D.h.Q.R.R.n.T.W.[ c.| c.B.c.~.B.c.B.B.B.c.| B.c.| B.v.c."
};
