/* XPM */
static char *_3381_284a859afe9b9d71b1be220f18c431426bd3974aaa84e51db4f6839290539c15[] = {
/* columns rows colors chars-per-pixel */
"64 64 241 2 ",
"   c #020301",
".  c #000C00",
"X  c #0B0403",
"o  c #140502",
"O  c #031700",
"+  c #19150C",
"@  c #170F14",
"#  c #1E1A1A",
"$  c #261B16",
"%  c #341C1F",
"&  c #280F06",
"*  c #092400",
"=  c #082703",
"-  c #1A340D",
";  c #1D3611",
":  c #16280E",
">  c #282619",
",  c #39271D",
"<  c #233C16",
"1  c #283B1D",
"2  c #291E26",
"3  c #292428",
"4  c #352C2C",
"5  c #372A26",
"6  c #3D332D",
"7  c #393A25",
"8  c #3C2F31",
"9  c #3B3634",
"0  c #292331",
"q  c #472A1E",
"w  c #49301A",
"e  c #422B25",
"r  c #472C28",
"t  c #44332D",
"y  c #4D332B",
"u  c #483526",
"i  c #563729",
"p  c #492E32",
"a  c #433332",
"s  c #4A3433",
"d  c #443B35",
"f  c #4C3B33",
"g  c #4C393B",
"h  c #523C34",
"j  c #533C3B",
"k  c #573B33",
"l  c #643C3A",
"z  c #29421B",
"x  c #334B26",
"c  c #384C2C",
"v  c #39542C",
"b  c #394D31",
"n  c #3E5732",
"m  c #2D4A23",
"M  c #4B4338",
"N  c #5C443C",
"B  c #594639",
"V  c #475736",
"C  c #53543C",
"Z  c #52432B",
"A  c #644738",
"S  c #744F39",
"D  c #66573E",
"F  c #6C5237",
"G  c #4C6C3B",
"H  c #456535",
"J  c #58663C",
"K  c #4E733A",
"L  c #537A3E",
"P  c #54723C",
"I  c #4C4243",
"U  c #5D4542",
"Y  c #5C4B43",
"T  c #544845",
"R  c #5A5645",
"E  c #5D5D51",
"W  c #634A44",
"Q  c #674946",
"!  c #685747",
"~  c #725448",
"^  c #765A49",
"/  c #675B54",
"(  c #7B5C54",
")  c #735853",
"_  c #4D6842",
"`  c #526946",
"'  c #586748",
"]  c #4F7241",
"[  c #527441",
"{  c #567B44",
"}  c #597D46",
"|  c #577C48",
" . c #5A7D4A",
".. c #58744B",
"X. c #5F7C51",
"o. c #577050",
"O. c #656447",
"+. c #77654B",
"@. c #647C4C",
"#. c #73784D",
"$. c #6B6557",
"%. c #7B6253",
"&. c #776958",
"*. c #677854",
"=. c #79785A",
"-. c #7A7571",
";. c #A2783E",
":. c #895C34",
">. c #855F4C",
",. c #86664B",
"<. c #836555",
"1. c #856A59",
"2. c #8C6C5B",
"3. c #876A56",
"4. c #916D54",
"5. c #8C725C",
"6. c #85745B",
"7. c #92735C",
"8. c #99755B",
"9. c #936645",
"0. c #886D63",
"q. c #956F64",
"w. c #897866",
"e. c #947663",
"r. c #957A63",
"t. c #9D7B65",
"y. c #9C7E6B",
"u. c #987565",
"i. c #9A7F74",
"p. c #A47C6A",
"a. c #5B8245",
"s. c #5D834B",
"d. c #5E8C4B",
"f. c #5D8A46",
"g. c #5F8450",
"h. c #61854D",
"j. c #638A4D",
"k. c #67874B",
"l. c #65914D",
"z. c #69904E",
"x. c #628552",
"c. c #6A8554",
"v. c #658B53",
"b. c #698D55",
"n. c #668359",
"m. c #6B855D",
"M. c #678B59",
"N. c #6B8D5A",
"B. c #738D55",
"V. c #738459",
"C. c #738C5B",
"Z. c #798858",
"A. c #659253",
"S. c #6A9255",
"D. c #6E9855",
"F. c #6D935B",
"G. c #6D9A5A",
"H. c #679058",
"J. c #71955D",
"K. c #729A5D",
"L. c #769458",
"P. c #70854D",
"I. c #76A05E",
"U. c #6E8C61",
"Y. c #6E8760",
"T. c #728D63",
"R. c #778A66",
"E. c #6E9360",
"W. c #739562",
"Q. c #7A9562",
"!. c #759B63",
"~. c #799C65",
"^. c #7A9C69",
"/. c #78966A",
"(. c #7F9274",
"). c #7AA165",
"_. c #7DA36A",
"`. c #75A164",
"'. c #7FA470",
"]. c #86875D",
"[. c #87925F",
"{. c #888A65",
"}. c #988168",
"|. c #869568",
" X c #898779",
".X c #968873",
"XX c #97957B",
"oX c #859B77",
"OX c #A5836A",
"+X c #AC8B75",
"@X c #A78A73",
"#X c #B28C76",
"$X c #A79476",
"%X c #B3937C",
"&X c #B69479",
"*X c #B0886F",
"=X c #80A46D",
"-X c #81A96B",
";X c #85A674",
":X c #AAA97E",
">X c #B3A174",
",X c #C09F7E",
"<X c #C2A468",
"1X c #A89A84",
"2X c #B89A87",
"3X c #A4AC82",
"4X c #B9A487",
"5X c #AAB887",
"6X c #BAB98D",
"7X c #AFA790",
"8X c #C29B8D",
"9X c #C8A68C",
"0X c #C5B28E",
"qX c #C9AA98",
"wX c #D1AC96",
"eX c #C4B898",
"rX c #D8B998",
"tX c #D6AF8E",
"yX c #E0BE9D",
"uX c #D6BBA3",
"iX c #CDBCA4",
"pX c #E1BEAB",
"aX c #D2C497",
"sX c #ECC891",
"dX c #D8C6A7",
"fX c #D6D6B0",
"gX c #E5C8A8",
"hX c #EACCB3",
"jX c #E8D6B5",
"kX c #F3DDBD",
"lX c #ECD1B2",
"zX c #DDE0B5",
"xX c #E6E3BB",
"cX c #F2E0BA",
"vX c #F4DBCA",
"bX c #FDEACB",
"nX c #FBEDD1",
"mX c #FEF6DA",
"MX c #FEF8D9",
"NX c #ECE9C6",
"BX c #FEFDE4",
/* pixels */
"b.a.L v.j.F.} a.j.z.a.K.I.j.D.D.I.D.f.l.K.~.b.f.S.d.f.!.L.j.z.S.h.L G.A.l.l.D.K.A.l.G.D.z.F.F.S.S.f.j.K.S.A.S.a.j.j.v.G.F.j.s.L ",
"h.b.F.F.j.h.K L b.z.j.j.h.S.z.h.z.K.D.j.j.K.J.j.z.G.G.G.K.L.B.B.z.D.j.s.z.D.D.S.A.G.l.j.z.z.S.K.S.j.L j.z.S.j.S.j.j.G.S.j.{ a.a.",
"h._.K.s.b.a.s.v.j.j.I.f.S.D.j.S.d.d.K.S.s.d.~.K.D.S.A.D.J.@.P.L.P.L.P.c.z.z.f.K.`.G.j.z.a.d.A.G.a.j.j.a.j.j.z.K.z.S.j.s.s.j.h.a.",
"h.J.L S.j.S.j.K.j.j.S.).j.j.S.f.a.`.b.v.!.s.j.z.k.@.k.c.P L.:X:X:X[.Z.#.P.k.D.I.I.D.j.j.j.D.D.l.S.j.j.D.a.a.S.a.K.z.j.d.L j.j.v.",
"j.h.j.h.h.a.j.K.a.f.f.j.S.S.a.j.G.I.j. .j.j.k.z.B.[.[.:X:X6X6XaXeX:X X=.#.c.K.S.v.S.j.z.D.f.S.K.K.I.S.z.F.S.j.a.F.D.S.j.a.k.a.F.",
"h.h.j.} v.z.h.j.L h.j.z.S.D.S.S.S.S.J.j.} @.P.5XzXzXdXjXcXgX0X&X$X.Xw.$.#.=.L.b.j.z.F.z.A.l.K.D.S.z.f.l.D.a.j.D.d.v.K.j.j.} j.b.",
"z.j.F.j.h.a.L j.D.a.h.j.K.j.j.j.a.b.F.C.P.=.].1XeXiXaX0X>XdXgX2X=.+.w./ ! R *.W.K.K.-Xz.l.l.j.K.j.a.a.K.S.j.S.j.j.v.s.j.j.v.} b.",
"z.S.j.j.b.} a.A.K.S.a.f.K S.-Xj.v.{ N.c.O.O.$./ B 1.r.$XlXhXqX1Xi.w.0.$.! R V C.K.F.z.z.z.D.S.K.z.j.S.j.S.S.j.a.{ s.K.h.h.{ j.s.",
"a.j.K.v.s.S.S.A.z.j.j.S.j.S.z.S.N.N.*.R M R E T T Y 1.4XiX1X! h Y W B W Y R 7 #.~.j.j.D.f.A.A.S.S.a.j.j.a.K.I.h.S.K.j.j.b.j.j.v.",
"j.v.j.j.j.j.v.j.S.j.S.j.j.h.j.K.N.Y.V 9 d M d 9 I !  X XR , 5 t f B D +.+.6.O.J Q.S.K.z.l.L S.K.f.D.K.z.S.f.z.S.K.!.F.b.h.b.v.v.",
"v.v.v.L v.S.S.v.S.D.D.S.S.D.K a.M.` > 4 d 9 9 M / E M X + 5 5 k F +.@X4X%XdX7X{.@.K.F.h.K.A.z.h.S.S.K.S.a.j.h.z.d.s.j.S.D.F.h.j.",
"S.d.A.j.j.K.F.v.j.j.j.S.S.).j.d.g.b > 8 5 6 t M R T t 5 d d B ( 0.OX9XrXkXbXhX6X[.B.S.k.S.D.D.j.K.S.a.z.j.S.j.J.F.j.j.K.).v.W.b.",
"J.S.d.v.j.v.K.D.S.).`.j.s.S.D.s.W.b # 0 5 5 5 7 g a 5 s U / ( 4.p.#XtXyXbXMXvXaX|.P.L.J.S.S.S.J.S.z.d.S.S.j.S.A.F.F.F.F.F.b.S.j.",
"a.j.j.j.v.d.`.j.a.S.D.j.S.j.j.S.E.n @ 2 3 4 > 6 d a h W ) %.3.p.&XtXyXlXMXMXnXjXaXZ.b.K.S.z.K.D.S.j.K.S.S.-X).S.z.j.K.S.S.v.a.L ",
"s.v.a.v.j.S.K.K.a.S.S.K.K.S.j.h.@.V @ 2 3 3 4 a g j A A <.2.t.&XtXyXlXbXBXBXmXNXfXP.h.I.K.S.D.!.j.S.S.a.j.`.j.z.K.h.j.I.F.h.F.j.",
"d.d.s.D.v.v.j.a.D.).z.S.j.S.S.k.W.`   0 2 5 4 s j N ~ ~ <.e.@X&X0XgXbXnXBXMXBXMXfXk.k.G.K.z.W.F.A.j.z.K.j.j.h.S.h.j.a.k.h.b.j.F.",
"J.{ v.v.S.s.s.j.j.~.S.h.h.S.b.k.!.o.  0 3 9 a s U ) ( 1.q.e.q.2XgXgXsXsXsXaXeXnXBX3X{ D.K.S.b.F.F.S.K.-XK.j.S.S.b.j.h.a.S.D.j.D.",
"j.b.a.v.v.W.j.L k.K.K.j.S.F.F.b.J.o.  3 0 a g j U ) ) %.+.1.4XrXOX9.:.;.<X>X+.1XvXfXx.K.K.z.a.j.K.S.h.S.K.z.b.)._.K.~.j.a.K.z.h.",
"} v.F.h.s.s.F.K.F.K.b.K.j.j.J.j.W.*.. 0 4 9 d Y %.6..X.X.XeX1Xw i F :.9.9.F ! =.1X.X[.~.D.f.l.z.K.j.f.L h.F.K.j.h.K.~.K.j.A.v.z.",
"F.F.a.s.!.j.v.v.j.~.F.S.b.).j.j.N.V . # $ I / &.$.&.w.1X7X1XD A S Z A F u Z M u &.Z |.K.a.A.j.z.S.K.D.j.F.).b.j.S._.S.L j.a.j.j.",
"x.{ h._.F.j.F.{ h.j.F.j.S.S.h.j.E.o.. @ E / T T X X o B %.! A ,.S Z A $ $ 6 , ! iXdXNXoX} S.z.h.S.j.S.S.S.h.S.b.J.K.K.S.F.L h.h.",
"S.a.b.v.s.s.j.s.a.} F.S.K.h.v.K.E.n.# 9 / # X 9 7 & u N j .X1.r w w , $ $ Y ( 9XBXnX5XB.=Xk.S.D.K.K.j.j.J.S.J.S.K.!.j.j.j.z.j.L ",
"s.F.v.d.v.v.s.a.j.h.z.h.b.S.K.S.A.M.` 3 9 $ 2 + % i Q l y qX8Xi y 5 + + W y.p.dXbXcX{.k.K.b.a.v.h.S.f.z.j.F.z.h.j.a.K.~.S.S.j.v.",
"s.j.F.b.s.j.F.s.s.j.h.F.~.j._.=Xd.!.T.9 #   2 @ 5 ^ A y & pXvXq.Q Q U / <.8.t.,XdXlX6XP k.b.v.s.I.D.K.F.K.J.b.j.k._.h.j.b.L j.`.",
"F.N.s.H.s.S.v.v.!.v.S.S.!.F.F.K.a.[ R. X X-.3 # , N W , q 2XvXhXe.<.q.e.y.p.OX*X*XgXdXeX5XH j.v.G.!.F.a.J.).b.k.F.K.j.b.S.j.s.b.",
"a.F.s.!.F.)._.s._.F.s.x.a.a.s.j.H.U.' . / -.I @ $ s h e y ( 8XuX9X8.p.p.#X}.OX*X8.wXlXbX5XP L.F.K.j.D.K.} J.j.K.K.F.S.F.F.v.v.v.",
"S.F.j.s.s.s.F.b.J.F.d.F.v.H.F.v.a.m.oX$.    4 a 8 r t y i l l q A 3.p.8X#XOXOX8.4.wXyX6X5Xh.L.L.F.S.S.S.F.K.K.K.F.S.~.v.S.S.h.j.",
"} s.S.{ j.v.F._.F.F.a.b.!.F.S.F.!.M.R.3X$.> 8 g I j T N r q i Q A 3.p.#X%X*X}.4.,.9XrX$X[.F.S.L s.F.S.j.J.S.K.K.h.S.K.J.v.!.J.s.",
"a.v.s.d.{ v.F.v.v.F.s.b.b.{ g.F.F.N.c.C.|.M > M U W U W h e i ~ q.p.p.p.@X#Xt.+.4.4X4X#.V.F.S.A.a.S.v.A.K.J.a.h.a.s.b.S.a.{ x.v.",
"F.F.W.s.F.b.s.d.s.{ v.S.a.F.d.b.J.M.j.b.j.c.> t j W Q U h k ( ( 8XwX&X*X+X@Xe.5.}.$X4X].C.v.F.`.G.v.!.K.S.j.F.K.F.a.W.v.b.v.v.s.",
"S.F.b.b.S.v.b.s.v.b.a.v.a.a.g.F.M.} !.d.K./.' + j l W U Z f Q / 0.8X9X*X&X@Xe.e.r.}.$X#.Q.).~.z.).K.j.b.F.J.F.j.K.S.v.v.E.E.x.F.",
"F.v.S.v.F.K v.v.K.!.v.s.F.b.b.F.M.N.j.A.b.v.oXC $ j U j j f % % o q >.4.OX4X%Xy.5.6.].{.C.b.j.~.D.K.L S.K._.K.K.!.j.b.s.F.F.x.!.",
"b.K.F.s.S.F.v.v.v.b.h.j.h.F.v.W.N.!.A.d.d.j.|.*.$ t g j p r y r l q.u.<.2.%X2X}.w.+.].|.S.h.b.K.F.S.K.j.z._.S.S.F.j.j.b.K.S.v.v.",
"j.} s.j.s.S._.a.j.b.s.v.a.s.B.j.m.J.S.v.a.v.J.R.C 3 p g g p k Q l l ~ %.( 7.@X@X5.O.V.C.L z.h.!.K.v.K.s.s.h.J.S.v.b.s.!.s.F.W.F.",
"s.a.v.F.F.v.F.F.F.v.H.v.{ s.J.F.v.b.v.a.H.b.k.L.*.+ 4 s p p e e r r Q ~ ~ <.}.%Xw.O.{.c.b.W.h.j.F.S.).b.a.s.F._.v.a.v.b.v.M.b.b.",
"v.s.{ b.v.v.A.!.!.!.F.j.b.b.j.b.S.a.h.W.E.j.j.c./.C $ 4 p p t t s h A ~ S S 8.$X+.! /.W.@.B.N.c.b.S.!.K.S.H.F.F.F.F.v.F.K.a.{ s.",
"v.x.| N.| b.v.H.S.b.{ a.s.v.v.F.v.s.S.v.x. .v.J./.m.7 > t t s h Z B Q <.5.8.+X6.Z Y.T.x.g.^.W.M.S.F.s.S.v.j.F.b.W.v.g.g.s.| { F.",
"s.F.F.F.v.F.g.F.F.d.F.!.F.H.j.v.b.H.v.x.v.E.x.v.h.N.*.1 + t h W ^ %.<.1.$X:X}.O.=.T.U.x.E._.M.a.v.K._.s.b.b.a.v.v.b.F.a.x.v.g.s.",
"x.F.s.g.b.s.v.s.v.N.M.!.!.b.s.v.E.s.b.!.E.G.!.b.W.g.F.U.V > j W ) ( ( %.6.=.O.B.W.M.x.v.d.d.h.F.s.v.v.J.F.v.N.b.s.v.x.F.H.v.g.v.",
"v.M.s.s. .a.W.E.g.v.s.N.b.K v.F.b.b.H.v.G.!.!.H.v.s.F./.R.' 7 M M f u C C J V.b.A.!.x.F.).d.A.J.v.v.v.v.G.!.x.F.M.M. .v.g.M.b. .",
"s.| N.N.s.| s.W.F.{ | s.v.g.b.s.^.F.h.h.h.b.h.v.b.h.v.M.N.C.*.V J *.Y.R.m.^.Q.J.N.F.c. .K.-X-XJ.b.x.s.v.W.x.J._.b.s.g.v.N.| g.b.",
"v.M.h. .v.v.s.v.W.F.g.| F.v.g.s.N.F.j.h.S.{ h.F.c.J.L. .x.N.x.X.N.W.P ..x.s.j.x.J.F.n.c.b.F.F.!.W.^.!.N.F.F.x.s.b.v.g.M.v.F.W.F.",
"[ !.J.h.} h.s.[ a.v.M.M.N.x.M.x.E.s.J.s.N.v.x. .b.b.x.n.N.x.N.!.v.n.J x T.J.j.v.v.h.C.c.L.c.W.F.F.F.N.J.K b.N.b.v.s.M.x.g.H.F.g.",
"F.!.v.[  .N.s.M.s.{ E.x.v.v.v.M.W.v.v.C.h.v.!.E.F.h.s.M.Q.;Xb.M.` o._ x T.@.x.N.v.N.W.~.J.Q.N.b.N.!.s. .h. .@.J.g.v.F.v.E.s.F.W.",
"N.M.[ v.h.M.J.x.F.F.s.F.s.x.s.v.{ N.^.x.h.L.F.v.v.[ s.g.x.c.c.< . x .   1 ; z - x n./.M.N.v.a.b.b.N.b.J.b.N.M.h.v.v.g.E.S.a.W.M.",
"v. .b.N.s.N. .s.b.M.s.v.v.g.M.v.W.F.F.N.N.J.x.g.S.N.s.{ Q.@.* o.m.m.R.c b (.m.*.` O ..E.W.n.F.F.F.x.b.M.N.c.{ v.v.M. .v.v.M.v.s.",
"C.x.@.s.N.v.G j.F.N.E.v.M.N.g.s.W.x.v.S.F.v.W.x.v.F.M.x.~.x.= /.W.x.U.n.1 T.n.W.;XH ` ~.N.b.h.J.N.J.@.J.v.J.N.J.x.v.F.!.W.E.v.x.",
"W.x.v.h...M.W.s.| b.W.x.v.F.v.s.F.M.s.v.a.] M.W./.W.s.N.g.X.= ../.s.| M.= m.W.v.n.* x.b.v.M.F.b.b.F.J.!.W.v.} F.J.W.g.!.F.v.g.v.",
"N.s...s.s.s.M.E.| g. .| E.M.g.g.x.v.W.F.} x.F.g.E.W.W.g./.;X[ X.| { ;XN.v V W.W.G m F.j.N.b.J.N.N.N.^.;X{ g.v.g.v.v.!.{ s.M. .F.",
"g.N.M.g.x.M.M.E.v.| E.g.g.g.[ s.J.J.v.{ b.F.g.[ W.g.x.W.N.v.g.x.H.v.W.m...< T.U.M.!.S.F.b.J.m.N.h.F.x.b.F.!.v.E.F.M.v.v.s.x.M.v.",
"g. .M.g.s.v.N.F.E.M.E.W.s.| g.{ h.N.v.v.v.!.F.F.M.M.;X!.c.g.x.N.W.E.N.W.b O *.U.U.n.W.M.W...m.Q.v.g.F.a.a.M.s./.^.v.| g.^.{ M.E.",
"g.v.W.F.v.x.E.M.x.M.s.M.M.F.v.E.v.v.N.!.E.b.s.E.g.n.!.g.x.W.x.E.W.n.m.v m b ; R.m.c.N.oX_ . = ../.F.^.;XM.H.g.s.x.v.v.W.M.v.b.F.",
"g.E.x.{  .E.E.v.E.U.g.s.M.E.M.!.W.N.x./.v.v.W.E.g.{ b.g.!.E.b.N.c.C.< b T.Y.n < n.oX'.` . X.Y.n.F.F.v.E.s.g.v. .F.M.F. .g.v.g.g.",
"g.M.W.g.g.| s.x.M.!.| [ g.{ | | N.N.J.J.v.F.F.!.| F.E.M.E.E.m.g.n.- b n.X.m./.H < m.b * n.E.T.n.N.v.N.s.F.W.M.{ M.x.v.s.b.!.F.M.",
"M.N.N.'.^.x. .n.g.{ x.n.N.x.x.v.W.N.N.F.W.U.E.v.F.F.v.g.E.b.F.^.n < N.J.^./.'.'...- n U./.n.F.~.E.M.F.v.g.b.s.v.F.v.s.| '.M.g.v.",
"x. . .N.F.g.N.N... .x.x. .N.N.s.x.W.| /.W._.F.{ v.| | g.x.v.M.F.m ` W.N.'.!.m.g.U.M.T.N.W./.F.F.| s.N.s.v.W.s.s.a.E.E.F.E.M.F.!.",
" ...x.N.N. .N.W.^.s.M.N.x.h.x.v.E.N.N.N.x.x.x.F.F.F.v.N.g.F./.c. .; E.N.s.E.^.E.x.N.J.h.J.M.F.F.!.v.F.`.F.M./._.F.U.H.M.M.E.g.g.",
"x. .F./.N.N. .| ..g.v.N.U. .N.J.N.x.N.N.[ n._.F.M.g.E.!.F.s.F.N.N.x H !. .!.'.g...W.v.c.b.h.!.s.M.g.g.W.M.F.E.x.g.g.M.E.!.E.g.s.",
"N.g.N.F.N.x. .H g.g.X.N.x.x.N.c. .X.N.M. .M.W.E.b.^.v.M.M.M.N.N.C.U.- _ E.M.E.E.N.J.x.g.h.F.b.{ v.M.E.g.M.;XU.| M.| g.g.x.!.M.M.",
"x.x.C.N.N. .F.W.N.x.| n.x.v.F.J.N.x. .E.F.^.F.F.v.F.M.v.M.!./.W./.*.. ..N.H.E.s.x.x.U.Y.c.c.L J.E.v.M.E.^.!.v.M.F.E.F.G g.g.g.M.",
"U.[ ` v.x. .@.W.x. .} T.N.C.v.s.M.M.M.g.!.^.g.F.b.s.g.M.N.W.W.W.T.- G n.W.E.W.E.W.F./.U.c.x.~.h.F.M. .M.N.x.N.v.E.c.W.~.x.x.x.x.",
"F.N.N.h.[ x. .[  .X.x. .N./.W.s.U.g.F.E.M.s.N.F.F.v.x.s.N.^.m.F.m.T.m. .E.W.x.W.G.v.H.M.W.N.J.v.N.W./.N.N.N...s.N. . .c.M.g.v.n.",
"N.x. .N. .H x.G x.U.N.x.h.N.W.h.E.M.v.M.F.M.{ s.F.F.F.F.N.F./.s. .N.M.^.W.F.s.g.a.H.W.!.N.x.E.m.x./.M.F.F.x.c.W.N.N.M.M.n.N. .[ ",
"s.m.W. .x.N. .x.N.F.v.n.N.W.b.N.g.s.g.[ ^.E.F.!.E./.x.F.W.M.x.U.W.W.m.N.M.M.g.x.!.!.a.{ { E./.U.F. .@.x./.W.x.x.x. .x.J.M.x.W.x."
};
