/* XPM */
static char *_8926_9916e3db23ee891729d7ce87694d02949a4420d99d1845257bf7c9bd9595ba34[] = {
/* columns rows colors chars-per-pixel */
"64 64 243 2 ",
"   c #030301",
".  c #0C0000",
"X  c #000D00",
"o  c #070907",
"O  c #140700",
"+  c #011700",
"@  c #161209",
"#  c #1D1716",
"$  c #0D0E10",
"%  c #231A0D",
"&  c #261C16",
"*  c #331B1B",
"=  c #2D0800",
"-  c #082400",
";  c #17340C",
":  c #1C3811",
">  c #152A0F",
",  c #292518",
"<  c #253B18",
"1  c #3C2A1C",
"2  c #281E28",
"3  c #2A2526",
"4  c #342C23",
"5  c #3A2E24",
"6  c #3B2E2C",
"7  c #342728",
"8  c #3B332C",
"9  c #363A2A",
"0  c #3C2D31",
"q  c #3C3733",
"w  c #262230",
"e  c #46271D",
"r  c #4D361D",
"t  c #422E2B",
"y  c #462A25",
"u  c #44342D",
"i  c #4A3C2C",
"p  c #4B3329",
"a  c #543428",
"s  c #452D31",
"d  c #433534",
"f  c #4B3433",
"g  c #4C3B33",
"h  c #4D3B3B",
"j  c #483838",
"k  c #523C34",
"l  c #533B39",
"z  c #5A3E32",
"x  c #522A20",
"c  c #643C3B",
"v  c #26421B",
"b  c #2D4925",
"n  c #364929",
"m  c #39562D",
"M  c #345127",
"N  c #3C5632",
"B  c #3C4B34",
"V  c #4B4639",
"C  c #554435",
"Z  c #55413C",
"A  c #5C453B",
"S  c #5B4737",
"D  c #495A38",
"F  c #56593B",
"G  c #494829",
"H  c #65453A",
"J  c #734F3A",
"K  c #65573A",
"L  c #704F31",
"P  c #4B6B3D",
"I  c #496737",
"U  c #57673C",
"Y  c #4E723D",
"T  c #4B7336",
"R  c #51763C",
"E  c #53793E",
"W  c #533F40",
"Q  c #4A4341",
"!  c #524442",
"~  c #5C4543",
"^  c #5C4C43",
"/  c #544A45",
"(  c #5A5647",
")  c #5F5553",
"_  c #634A44",
"`  c #654D4C",
"'  c #664842",
"]  c #675746",
"[  c #765849",
"{  c #685B54",
"}  c #7B5D53",
"|  c #745A52",
" . c #4E6942",
".. c #4F6340",
"X. c #586A47",
"o. c #537542",
"O. c #567B44",
"+. c #597D45",
"@. c #56724C",
"#. c #577C48",
"$. c #5B7D4A",
"%. c #5A744B",
"&. c #5D7D51",
"*. c #76634C",
"=. c #647A4A",
"-. c #71774D",
";. c #6C6655",
":. c #726354",
">. c #7C6254",
",. c #796959",
"<. c #637D54",
"1. c #687855",
"2. c #767A56",
"3. c #656747",
"4. c #7A7168",
"5. c #6F6862",
"6. c #8E6432",
"7. c #855E4D",
"8. c #8B674C",
"9. c #846455",
"0. c #8C6A54",
"q. c #8C6C5A",
"w. c #856B58",
"e. c #86735B",
"r. c #95745B",
"t. c #916443",
"y. c #A47A40",
"u. c #8C7766",
"i. c #957963",
"p. c #9A7C65",
"a. c #967765",
"s. c #857D74",
"d. c #916C65",
"f. c #A17C6B",
"g. c #5B8245",
"h. c #5E834B",
"j. c #5E894B",
"k. c #588543",
"l. c #5E8350",
"z. c #61854D",
"x. c #638A4D",
"c. c #688D4D",
"v. c #6A854D",
"b. c #65914B",
"n. c #6A934E",
"m. c #638652",
"M. c #6B8553",
"N. c #658B53",
"B. c #698D55",
"V. c #65835A",
"C. c #6A845B",
"Z. c #678B59",
"A. c #6B8D5A",
"S. c #738459",
"D. c #728C5C",
"F. c #7C8B5E",
"G. c #778757",
"H. c #669252",
"J. c #6A9255",
"K. c #6D935B",
"L. c #6D9A5B",
"P. c #6C9756",
"I. c #719356",
"U. c #71955D",
"Y. c #729A5D",
"T. c #77995B",
"R. c #70874F",
"E. c #7CA45E",
"W. c #6D8C61",
"Q. c #728C63",
"!. c #778A66",
"~. c #6E9360",
"^. c #729562",
"/. c #799564",
"(. c #759A63",
"). c #799C65",
"_. c #799569",
"`. c #7B9C6A",
"'. c #779A68",
"]. c #7F9276",
"[. c #7AA165",
"{. c #7DA36A",
"}. c #87885F",
"|. c #878A63",
" X c #978469",
".X c #859669",
"XX c #978874",
"oX c #879D77",
"OX c #958F76",
"+X c #A4836C",
"@X c #A5866B",
"#X c #AC8C73",
"$X c #A98A74",
"%X c #AA9377",
"&X c #B4967C",
"*X c #B4946E",
"=X c #82A46D",
"-X c #82A86B",
";X c #84A673",
":X c #91A476",
">X c #A8B07F",
",X c #C4A265",
"<X c #8B8881",
"1X c #A89983",
"2X c #B99A85",
"3X c #BF9E91",
"4X c #9FAB85",
"5X c #ABAA80",
"6X c #AAA584",
"7X c #B8A487",
"8X c #A6B685",
"9X c #B5B98D",
"0X c #B9A993",
"qX c #BFB592",
"wX c #C79E8C",
"eX c #C8A78C",
"rX c #C7B796",
"tX c #D9BA98",
"yX c #CEAD93",
"uX c #CBBBA1",
"iX c #D8BBA1",
"pX c #CBA9A0",
"aX c #E0BBB3",
"sX c #C7C89D",
"dX c #DDC499",
"fX c #E9C68F",
"gX c #D7C5A6",
"hX c #D7D9B6",
"jX c #D2D4AA",
"kX c #E5C9A8",
"lX c #E7D8B4",
"zX c #EBD0B4",
"xX c #F5E1BE",
"cX c #E0E4BF",
"vX c #F1DDCA",
"bX c #FEEDCB",
"nX c #F6E7C7",
"mX c #FDF4D3",
"MX c #FFFADB",
"NX c #FCF7D9",
"BX c #F6E8CB",
"VX c #FFFEE3",
"CX c #FCF7E1",
/* pixels */
"E h.h.J.Y.N.N.x.k.H.x.H.T.z.g.n.J.K.J.H.n.T.b.H.(.P.b.j.n.P.E j.n.x.x.I.Y.k.j.P.z.B.).U.x.g.T.T.H.P.B.T.Y.g.n.j.g.k.U.x.x.E k.c.",
"g.z.+.x.J.K.x.x.P.x.P.c.x.k.x.Y.Y.P.J.x.b.x.L.H.H.P.P.H.x.z.H.H.I.I.I.P.E.H.L.b.x.Y.I.B.b.Y.P.n.x.c.J.g.x.x.n.N.O.T z.x.U.U.N.x.",
"+.h.N.g.h.x.J.J.Y.x.x.x.g.k.x.k.K.H.x.k.c.x.P.(.T.x.J.H.M.M.G.v.}.v.z.U.L.n.P.H.T.T.x.g.H.I.n.x.H.x.P.H.x.Y.b.x.N.g.k.B.z.U.[.z.",
"N.N.x.E x.j.N.(.g.B.k.g.T.c.x.P.x.L.Y.b.c.x.L.T.[.I.c.v.1.G.}.>X>X>XF.U M.=.z.n.x.B.g.Y.x.P.L.k.x.P.x.g.T.P.x.x.L.N.J.z.n.+.J.z.",
"K.h.g.g.z.I.P.J.j.x.n.I.x.n.Y.I.P.n.k.L.b.j.H.b.P.T.M.2.2. X>XrXrXqXqX5X>X|.|.}.B.z.x.c.O.H.E.L.x.g.J.P.x.h.z.E P.x.g.x.g.x.z.x.",
"B.h.x.z.x.Y.J.x.n.x.h.H.x.g.J.J.I.Y.b.b.b.L.j.b.x.U.2.1.:.4.XX%X>XrXkXlXzXgXhXlX8XM.=.E N.K.H.H.H.P.L.J.H.H.x.E x.g.B.x.+.x.x.z.",
"J.g.x.x.g.z.x.x.x.x.x.Y.Y.g.k.x.T.b.b.b.n.E.P.Y.I.=.F ] :.u.:.e.&XkXdX7XeXrXsXrX6X|.2.G.M.K.N.g.x.x.x.T.z.x.g.H.x.E g.z.N.I.x.B.",
"h.h.+.g.x.(.h.E g.x.P.x.x.J.x.c.T.n.P.b.n.n.J.(.A.D ( ] { 4.u. X%XyXkXlX%X Xe.S | :.3.X.2.B.+.N.x.-Xn.T k.g.P.T.x.x.+.N.x.x.J.B.",
"x.z.x.x.x.J.(.J.x.[.J.g.x.x.k.J.I.B.x.x.P.x.x.^.1.n F _ ^ ~ _ ~ h ] 1XuX7X,.^ ! ! ( ) g ( 1.V.B.P.x.H.x.c.x.N.x.x.n.J.g.B.U.B.+.",
"x.x.B.j.B.J.Y.Y.H.n.x.H.H.T.I.z.T.J.E x.J.P.K./.3.] u.*.*.] A k u 5 , ( XXs.{ / q W Q d q D D.N.Y.x.g.B.x.P.j.P.x.n.x.x.x.x.B.x.",
"x.x.K.K.J.x.g.j.H.j.c.g.J.Y.H.I.k.J.H.(.g.(.U.M.|.0XrX2XeX+X[ ] g 5 8 O   V { ) Q q d d 6 , X.M.z.T L.J.H.I.J.J.x.P.B.c.R x.x.x.",
"B.Y.N.[.U.x.x.K.U.x.H.x.x.g.H.Y.H.n.Y.N.B.B.B.F.rXgXnXxXtXeX+Xd.} Z j B 0 q / ) V 9 8 5 6 , n V.z.H.T.P.H.x.x.j.x.P.U.x.x.c.z.c.",
"B.J.x.U.J.K.P.K.n.J.x.Y.n.x.H.U.P.c.H.J.P.T.R..XdXlXMXbXdXeX*Xp.q.| ` / f 5 d j 9 4 5 7 7 # n ^.z.J.J.g.x.E.[.J.I.Y.x.z.c.x.J.I.",
"E +.x.J.J.U.x.J.H.[.{.x.H.T.x.H.Y.T.c.I.T.I.G.sXhXbXVXmXkXdXyX*X+X0.} | ~ l d j 8 4 7 7 2 $ N ^.J.n.g.P.x.J.n.g.x.Y.x.c.x.x.z.z.",
"x.J.z.U.[.x.g.Y.N.x.E.j.z.B.J.z.L.K.H.Y.Y.z.G.jXnXNXMXVXbXzXdXyX&Xr.r.9.H H l h q 7 3 2 w o D z.g.x.U.Y.[.J.c.k.Y.P.B.x.v.k.x.z.",
"U.x.c.z.N.g.N.j.J.x.x.x.Y.H.x.n.P.L.b.Y.Y.B.=.jXMXVXCXMXmXbXkXeX&X@Xa.9.[ ' ' h j 0 7 w w   X./.x.B.H.x.J.x.{.L.g.x.c.b.I.z.x.k.",
"J.x.Y.B.g.j.N.H.P.J.z.Y.-XU.K.L.J.N.P.Y.J.O.6XVXmXrXdXfXfXfXkXkX2Xi.i.r.9.} | ~ d d 0 3 w o @.(.N.J.J.x.g.J.(.N.m.h.g.J.N.x.+.K.",
"j.J.Y.j.N.(.Y.{.).H.B.T.B.h.K.Y.N.h.n.Y.Y.z.jXvX6X*.*X,Xy.6.8.#XuX2Xe.:.} | | ~ C h q 7 w   X.W.N.J.B.A.N.Y.(.N.o.N.(.N.m.h.N.x.",
"N.N.H.x.P.[.Y.h.c.K.T.z.g.g.x.T.P.b.k.n.).|.OX1X,.] L r.t.6.H r e 1X0X<XXXp.,.,.Z d 0 w w   <.'.z.U.N.N.Y.B.(.U.K.L.g.h.m.L.B.+.",
"N.x.g.x.O.J.T.K.z.B.[.J.x.K.K.P.x.j.b.j./..XG :.u p G p J L a K K K 1X0X1XXX,.:.,.;.V 3 # X D W.x.x.[.B.B.U.(.z.N.N.x.(.g.#.P.J.",
"h.j.E B.H.U.).H.J.B.z.B.J.L.x.H.x.c.J.E :XcXgXuX] t 5 * * S H [ *.] ] :.C . . . ^ / { ) $ o @.~.x.N.K.J.x.K.x.z.g.B.j.K.`.h.g.h.",
"g.h.H.j.K.x.U.Y.J.U.J.P.B.h.(.(.I.B.c.=XG.9XmXNX0X} ( % % * 1 y e 9.XXk S i % u 8   # ) q > l.~.U.N.g.T.B.K.k.+.h.N.h.g.N.B.h.J.",
"x.j.J.J.(.T.g.x.z.B.J.N.x.g.J.g.N.g.n.T.R.}.lXbXgXp.a._ % @ 7 a a wXpXx H H i , # w 2 9 3  .Z.H.U.P.J.B.h.H.z.x.g.h.B.N.h.B.B.l.",
"Y.N.E J.x.z.[.B.x.B.P.Y.Y.).J.[.h.N.M.v.o.9XlXdX2Xf.p.9.` ~ ` H d.vXaX= p S [ 5 @ # o # q !.~.l.{.-Xx.).K.h.x.z.h.Z.j.N.N.K.B.g.",
"B.g.N.J.B.x.Y.U.B.B.).P.k.K.T.K.N.M.I 8XsXgXkX#X*X@Xf.+Xd.d.9.a.zXvX2Xy * H ~ 4 # # 4.<X<X_.o.g.Y.K.J.T.U.H.c.(.N.x.N.x.B.h.J.K.",
"N.N.B.J.H.K.J.U.P.x.U.+.U.K.j.Y.B.(.T 9XnXzXyXr.f.@X X#X#Xd.p.eXiXwX} a y k g & # Q 4.)    .~.K.x.x.g.g.z.h.K.[.j.{.(.J.(.g.K.g.",
"N.h.J.J.z.(.J.K.T.U.I.J.P.Y.J.H.I.T.z.>X9XtXyX8.r.@X@X#XwXf.0.c x c c p p u 6 s 0 0     1.oXZ.g.N.J.N.B.c.x.J.U.N.B.x.z.h.m.J.A.",
"h.K.~.N.(.Y.K.z.Y.U.J.Y.x.x.J.x.E P.P.}.%XtXeX8.0.f.$X*X#Xf.0.c ' a y p Z ! W W h 0 , ;.<X'.A.(.J.J.K.(.B.g.K.B.[.J.N.x.+.B.h.g.",
"J.l.o.g.J.A.g.+.x.h.U.Y.B.H.n.g.B.J.J.S.-.7X&Xr.0.f.#X$Xf.+Xf.d.[ a e k ^ ^ _ W h , n .XD.M.A.A.K.h.+.B.K.#.K.J.x.K.N.o.j.$.N.g.",
"h.J.N.N.N.(.g.L.U.J.x.H.Y.(.x.I.[.J.B.D.|.6X%X@Xq.q.#X#X#X2XwXwX7.} k g ~ _ _ l i , 2.M.M.N.m.K.Z.m.J.O.J.x.O.k.h.h.B.L.N.L.^.J.",
"J.N.L.K.j.N.J.(.x.K.Y.K.x.x.[.[.J.(.{./.-.@X Xr.r.a.$X#X#XwXwXd.` ` k C A ~ ~ l % X.`.P.x.Y.#.N.~.h.g.h.N.g.N.N.N.J.h.Z.J.Z.J.A.",
"(.l.P.K.h.B.h.(.Y.(.[.T.H.E Y.P.(.z.N.I.|.}.e.e.p.&X7X+X0.7.e O * * f Z l ~ l & F _.V.H.P.N.K.Z.L.B.N.L.j.N.(.(.B.h.O.J.N.J.N.A.",
"N.N.Z.(.B.x.z.J.J.J.[.B.x.(.N.B.U.c.z.B..XG.-.q. X2X&X0.9.d.d.c s f 7 s W f 0 & =..Xh.j.j.H.(.Z.U.N.K.h.N.N.N.N.N.B.~.B.h.J.K.A.",
"K.(.J.g.(.h.B.x.U.I.g.z.g.U.H.(.(.z.c.+.R.G.]  X@X%Xq.[ 9.[ c ' c c s W W s , / Q.I.J.k.H.J.^.D.N.B.g.g.N.h.B.j.h.(.J.h.j.h.g.N.",
"N.Z.B.B.B.N.g.B.[.J.x.+.J.[.N.P.x.$.(.N.M.F.] i.%Xp.8.[ ` ' t y t y s j f 8 O 1.F.x.J.B.h.l.B.N.K.J.z.O.h.J.N.P.J.L.B.J.J.J.+.g.",
"h.#.$.^.L.N.K.P.J.K.H.J.U.).J.B.M.A.M.z.Q..XF *.%Xp.J [ ] H g u t t s s 6 # ( .XM.M.g.(.A.N.+.B.B.N.B.B.N.K.(.(.(.B.N.N.J.o.h.B.",
"Z.O.#.h.h.z.N.(.B.U.x.N.K.z.K.B.N.'.(.N.V.D.F.G e.%Xp.q.9._ S C k f t d , 9 V.).L.N.$.z.x.B.z.N.J.B.N.h.g.g.Z.J.B.N.A.g.Z.#.Z.l.",
"#.N.N.m.$.J.N.N.N.h.x.N.g.).(.B.l.Z.[.K.Z.~.D.1.F  X7X+Xw.>.>.[ _ f g O 9 =.D.z.N.l.~.V.x.N.H.N.N.N.J.N.(.J.l.J.P.l.J.J.Z.J.K.h.",
"z.m.N.K.A.x.N.z.B.B.N.)./.N.N.$.J.j.g.j.l.Z.B./.G.3.2.e.} } | | ' C , D W.A.l.~.N.(.^.U.).N.h.L.N.h.B.[.'.Z.J.N.#.N.l.m.l.h.K.l.",
"$.N.A.m.M.$.I.N.I.z./.J.N.N.N.N.^.N.j.{.J.h.(.A.M.S.U F F i i V G 5 3.!._.~.l.m.B.(.(.^.N.H.N.B.J.l.o.J.Z.h.N.l.^.~.#.h.h.h.K.l.",
"Z.V.$.B.m.z.z.M.[.^.m.^.N.g.N.N.^.[.-X).+.N.K.J.K.'./.C.!.!.=.F D 1.A.A.N.M.z.Z.N.h.N.z.z.z.B.[.h.B.l.B.h.O.O.B.(.h.#.h.A.Z.#.l.",
"K.U.^.N.B.N.m.N.h.N.A.U.A.'.`.(.(.P.I.M.M.M.L.L.z.z.h.m.%.X./.C.=.Z.M.N.+.^.A.A.A.m.+.B.x.N.D.A.g.l.N.A.$.h.A.(.Z.g.N.N.h.l.Z.N.",
"z.K.N.h.N.A.h.m.Z.B.Z.T K.A.A.K.K.~.K.I.M.A.z.N.B.N.Q.W.M U N.m.(.B.m.A.C.m.K.J.h.N.N.B.g.I.m.K.m.A.l.K.N.Z.m.$.o.g.l.#.g.K.(.o.",
"U.K.m.^.N.J.Z.m.~.h.h.h.$.g.(.A.l.K.^.U._./.C.N.B.<.<.!.b I o.R B.B.=X^.A.l.g.J.A.~.N.z.K.N.V.L.Z.N.N.m.N.K.#.h.Z.h.N.O.#.N.(.B.",
"Z.~.$.N.K.l.N.l.h.Z.J.Z.J.A.K.N.A.z.B.C.A._.V.M ; v < < X X b X : N.M.M.z.$.o.j.l.~.U.z.B.`.B.O.N.h.m.h.D.z.K.U.m.U.B.N.h.o.N.Z.",
"h.N.Z.N.N.#.Z.A.l.#.l.Z.Z.l.l.A.B.K.N.A.U.$.+  .<.V.oXB B !.2.Q.%.+ =.U.$.h.B.B.l.l.K.B.Z.A.A.^.m.B.m.N.B.$.N.B.=.$.B.z.A.A.$.m.",
"N.N.~.(.(.Z.B.g.~.J.K.N.^.h.K.K.L.z.A.A.'.o.I oX/.C.Q.v <.W.x.F.!.- V.'.m.B.I.N.Z.^.N.U.K.N.V.U.+.N.A.A.N.^.B.U.z.Y N.A.m.g.m.^.",
"N.$.N.J.(.N.~.~.K.o.N.(.^.^.K.B.A.A.B.M.Z.$.- C.V.^.C.- V.#.z.U.$.> <.z.A.g./.(.^.Z.R +.B.z.B.D.m.N.K.N.m.U.A.#.g.^.C.o.m.V.$.^.",
"K.#.B.h.+.(.l.N.m.N.l.O.{.[.K.Z.A.K.B.A.v.K.M I _.!.N M A.;XO.#.<.o.;X^.h.^.L.^.m.A.h.#.K.(.N.N.=.h.Z.J.$.#.m.O.U.A.h.$.$.%.z.Z.",
"Z.N.l.h.l.B.Z.L.^.N.(.K.Z.m.K.h.Z.Z.A.K.I.A._.C.W.W.v @.M.'.V.Z.V.$.V.D.^.m.m.~.o.N.~.m.#.m.A.^.$.o.Z.l.m.A.#.V.U.N.B.N.m.A.A.h.",
"~.Z.#.[.l.#.N.(.'.h.Z.$.h.K.l.m.~.Z.#.W.M._.C.Q.W.V.+ N Q.A.^.U.A.m.z.Z.^.=XZ.B.K.L.(.N.N.N.K.h.O.l.#.h.^.K.A.^.A.K.N.=.N.V.<.m.",
"J.B.l.Z.~.N.N.N.g.l.J.Z.;X(.Z.'.&.- X  .`.A.C.A.Q.: M b m S.m.^.U.N.^.&.m.'.N.h.K.$.N.~.(.A.x.V.K.N.Z.Z.M.g.V.N.A.K.z.N.A.^.N.$.",
"m.l.Z.l.j.K.Z.Z.h.N.l.h.~.Z.K.Z.<.V.&.X P oXoXm.< N Q.Q.n < C.M.V.A.A.U.N.Z.o.h.^.^.N.N.'.l.Z.).~.Z.U.B.%.m.A.A.Z.A.U.%.#.=.A.m.",
"Z.L.~.Z.#.N.N.K.o.N.~.J.h.J.N.Z.m.^.Q.W.- m V.<  .Q.B.%.V.M : z.z.A.^.D.N.K.K.#.(.K.K.m.~.L.A.A.#.g.O.V.P $.'.Z.V.z.+.N.m.'.Z.m.",
"m.l.N.`.#.h.N.A.Z.h.B.l.N.~.Z.~.`.A.V.^.Z.m : @.`.;X/.`.U.A.< D `.K.A.(.l.N.A.K.m.K.~.^.D.A.V.^.N.m.N.A.V.z.$.h.N.#.N.'.oXA.A.A.",
"(.A.A.~.~.(.~.g.#.h.~.N.h.Z.h.g.A.~._.'.D.A.C.A.m.Z./.oXD./. .b W.Z.N.l.h.#.#.N.#.K.`.^.'.#.(.z.h.Z.Z.$.N.m.$.%.N.D.$.K.A.#.#.m.",
"l.l.~.~.l.~.Z.~.{.'.Z.K.(.K.l.(.~.^.B.U.z.U.N.V.D.'./.$.A.^.: @.W.~.A.m.B.N.K.Z.~.l.Z.m.A.A.A.K.B.V.=.B.V.Z.$.'.^.N.$.B.A.V.$.o.",
"#.l.~.(.~.~.l.l.Z.~.~.Z.~.h.l.Z.h.).z.N.M.m.(.O.N.;X^.$._.I b W.m.~.l.L.^.~.N.Z.W.{.m.o.A.N.V.N.K.K.#.A.B.V.l.#.$.$.Z.D.^.A.+.V.",
"l.K.'.l.l.h.g.l.O.Z.;XZ.l.K.~.l.O.N.K.z.l.m.K.Z.~.U.Z.W. .; W.W.~.Z.N.Z.Z.Z.'.N.^.~.A.$.Z.A.$.%.N.A.V.N.A.h.m.=.I $.m.A.A.A.z.Z.",
"l.l.l.k.o.~.~.Z.Z.Z.~.{.~.Z.N.^.J.+.V.N.Z.A.l.m.$.A.K.A.@.X &._.~.~.'.Z.l.K.Z.J.K.^.(.A.^.$.m.A.^.K.N.V.m.O.m.Z.^.Z.$.Z.A.A.m.M.",
"l.l.l.Z.(.~.l.K.l.Z.l.K.N.#.Z.K.z.).N.m.W.^.J.U.~.~.~.^.A.P ; W.'.).^.Z.K.Z.h.l.A.l.'.'.N.Z.Z.M.$.N.D.N.K.$.$.V.'.N.$.z.V.o.Y A.",
"Z.l.h.~.Z.l.h.~.l.k.~.Z.K.(.~.Z.N.^.A.^.W.~.B.L.~.m.^.~.%.A.A.C.M.A.'.Z.l.l.Z.~.K.A.l.A.^.^.<.A.$.^.).B.$.V.$.$.R %.$.#.z.B.Z.^.",
"o.k.Z.l.l.Z.K.Z.~.Z.l.~.~.l.'.l.A.D.N.B.~.(.Z.h.l.h.A.^.).C.B.%.l.'.A.^.A.~.Z.~.h.$.B.A.V.N.A.U.x.U.A.&.m.A.^.$.I m.I +.Q.$.V.B.",
"l.~.Z.l.~.l.l.l.l.l.~.'.l.l.g.~.Z.'.A.O.+.+.(.^.m.m.A.B.A.A.U./.Z.m.Z.~.K.N.'.~.(.V.^.'.o.z.$.m.B.V.).Z.B.V.W.Z.V.#.B.V.#.U.Z.z."
};
