/* XPM */
static char *_2154_76d67357240f57b9ef2b9bfbd49c43eb2f89143e8ca09adbcd36d0eb52bae298[] = {
/* columns rows colors chars-per-pixel */
"64 64 242 2 ",
"   c #020500",
".  c #0B0100",
"X  c #020B02",
"o  c #0E0D08",
"O  c #160202",
"+  c #0F180C",
"@  c #18170C",
"#  c #181713",
"$  c #270E06",
"%  c #26130A",
"&  c #361A14",
"*  c #281917",
"=  c #0A2900",
"-  c #102905",
";  c #183908",
":  c #1B211A",
">  c #1D3216",
",  c #0F3200",
"<  c #28231A",
"1  c #36261B",
"2  c #233B14",
"3  c #273C1A",
"4  c #302E16",
"5  c #1E2223",
"6  c #2A2527",
"7  c #3E2D24",
"8  c #352B2C",
"9  c #3C2E2B",
"0  c #362727",
"q  c #39362A",
"w  c #3F3631",
"e  c #32352B",
"r  c #431F18",
"t  c #422B1D",
"y  c #422B25",
"u  c #452A2A",
"i  c #43342C",
"p  c #49332D",
"a  c #4A3928",
"s  c #443533",
"d  c #443A34",
"f  c #4B3A34",
"g  c #4B3937",
"h  c #523C34",
"j  c #593D32",
"k  c #543D3B",
"l  c #543537",
"z  c #5C3A2E",
"x  c #22450F",
"c  c #28421A",
"v  c #294A19",
"b  c #2D5018",
"n  c #354629",
"m  c #385728",
"M  c #3E4732",
"N  c #3E5531",
"B  c #2C4420",
"V  c #47432A",
"C  c #4C4231",
"Z  c #434838",
"A  c #55423C",
"S  c #5D463C",
"D  c #5C4A3D",
"F  c #584135",
"G  c #47593A",
"H  c #54563B",
"J  c #6C4828",
"K  c #664A3A",
"L  c #68543C",
"P  c #7F5A37",
"I  c #4A653C",
"U  c #476936",
"Y  c #566539",
"T  c #4D733B",
"R  c #4B7336",
"E  c #51753D",
"W  c #537A3E",
"Q  c #58753D",
"!  c #5A3B40",
"~  c #4B4441",
"^  c #5B4A44",
"/  c #554644",
"(  c #4C5B42",
")  c #575A47",
"_  c #5A5956",
"`  c #644B45",
"'  c #6A544A",
"]  c #65594D",
"[  c #695746",
"{  c #755B4D",
"}  c #755746",
"|  c #655A55",
" . c #745D52",
".. c #795B56",
"X. c #566847",
"o. c #537543",
"O. c #567B43",
"+. c #597E45",
"@. c #5A744C",
"#. c #577C48",
"$. c #5B7D4A",
"%. c #5D7952",
"&. c #536E4B",
"*. c #78684B",
"=. c #617C4D",
"-. c #657948",
";. c #6C6656",
":. c #796455",
">. c #6B7D53",
",. c #657956",
"<. c #767C59",
"1. c #666649",
"2. c #767E6A",
"3. c #756B62",
"4. c #875C3C",
"5. c #805E52",
"6. c #856554",
"7. c #84665A",
"8. c #8A6B5A",
"9. c #876C56",
"0. c #84745D",
"q. c #92735D",
"w. c #956E52",
"e. c #887666",
"r. c #957463",
"t. c #9C7C6A",
"y. c #977A66",
"u. c #8D7269",
"i. c #A27F69",
"p. c #A07F70",
"a. c #5B8345",
"s. c #5E834B",
"d. c #5E8A4A",
"f. c #598346",
"g. c #5F8451",
"h. c #61864D",
"j. c #638A4D",
"k. c #698B4F",
"l. c #648548",
"z. c #66914E",
"x. c #69914F",
"c. c #638552",
"v. c #6B8555",
"b. c #658B53",
"n. c #698D55",
"m. c #66835A",
"M. c #6B835D",
"N. c #678C59",
"B. c #6B8D5A",
"V. c #738D5C",
"C. c #7A8D5A",
"Z. c #738859",
"A. c #669152",
"S. c #6B9255",
"D. c #6E9855",
"F. c #6D935B",
"G. c #6E995A",
"H. c #679159",
"J. c #719957",
"K. c #71955C",
"L. c #729A5C",
"P. c #789B5E",
"I. c #76945A",
"U. c #76A15E",
"Y. c #7BA25F",
"T. c #6C8460",
"R. c #6D8C62",
"E. c #738D63",
"W. c #758666",
"Q. c #6F9561",
"!. c #739562",
"~. c #7C9464",
"^. c #759B62",
"/. c #799D65",
"(. c #76916A",
"). c #7C966C",
"_. c #7A9D6A",
"`. c #779C68",
"'. c #7E9A72",
"]. c #75A161",
"[. c #7AA164",
"{. c #7DA36A",
"}. c #7EA370",
"|. c #83875C",
" X c #878663",
".X c #92836B",
"XX c #9C8368",
"oX c #899466",
"OX c #9B8976",
"+X c #879A74",
"@X c #999C78",
"#X c #818D77",
"$X c #A3846C",
"%X c #A5866A",
"&X c #A68975",
"*X c #AB8C72",
"=X c #A68978",
"-X c #A89677",
";X c #B5947B",
":X c #B39068",
">X c #80A66B",
",X c #81A96B",
"<X c #82A473",
"1X c #89A978",
"2X c #98A475",
"3X c #BBAA7F",
"4X c #A99786",
"5X c #BA9782",
"6X c #B8978B",
"7X c #97B182",
"8X c #AAA289",
"9X c #B6AA89",
"0X c #B5B68C",
"qX c #BCBD93",
"wX c #888D86",
"eX c #C4A58B",
"rX c #C9A888",
"tX c #CAAD99",
"yX c #C5B696",
"uX c #D5B895",
"iX c #CAB98E",
"pX c #D8BCA3",
"aX c #E1BFA3",
"sX c #B1C391",
"dX c #D6C39A",
"fX c #C4C29B",
"gX c #D7C7A7",
"hX c #D8D5AD",
"jX c #D1D6AC",
"kX c #E7C5A6",
"lX c #E7D9B5",
"zX c #F5DCBD",
"xX c #EAD0B3",
"cX c #D8DAC2",
"vX c #F9E9C8",
"bX c #FDF2CD",
"nX c #F7E4D3",
"mX c #FFFAD5",
"MX c #FEF9D8",
"NX c #E3E7C2",
"BX c #FFFEE1",
"VX c #F0D3C3",
/* pixels */
"W l.h.S.I.k.j.j.W z.b.D.L.s.a.x.x.D.S.z.D.G.A.z.L.z.z.A.x.x.a.d.z.z.d.D.U.f.d.G.a.z.P.J.j.a.L.U.S.D.j.L.P.a.A.a.a.f.F.b.j.W a.b.",
"a.a.+.h.S.S.A.j.L.j.D.j.j.f.j.D.L.D.z.z.z.d.L.S.z.D.D.S.l.j.z.z.D.D.D.S.G.G.G.A.j.D.L.j.x.D.S.S.d.S.b.d.d.j.j.S.f.R d.j.F.L.j.s.",
"a.h.j.a.a.j.S.S.F.j.a.z.f.a.j.a.D.z.d.f.b.d.D.U.U.j.j.F.a.z.L.z.A.z.a.z.H.D.G.H.J.U.j.a.z.D.j.j.b.k.D.j.j.L.a.z.j.d.+.j.a.L.{.h.",
"k.j.j.W j.d.b.L.a.S.a.a.L.j.j.D.z.D.D.z.d.z.L.L.U.J.j.a.I.b.S.d.D.G.U.D.G.d.a.z.j.x.j.F.z.D.U.a.j.D.z.s.U.S.S.d.G.b.S.s.S.+.S.h.",
"n.s.h.a.s.F.D.A.a.j.b.D.j.D.L.I.D.x.l.D.A.j.S.j.z.U.j.S.O.m S.j.J.x.D.D.].z.A.].D.j.s.b.W j.L.L.a.d.A.D.j.j.a.f.L.j.s.j.h.j.h.k.",
"S.s.a.h.j.L.z.l.D.d.a.S.j.a.z.S.L.J.z.A.S.D.j.j.z.x.z.[.h.; P.x.D.j.x.U.U.G.A.A.a.j.j.+.j.L.G.S.S.D.F.D.S.j.l.O.j.a.b.j.W b.j.a.",
"S.+.b.j.h.h.j.j.h.b.j.L.D.a.a.j.G.j.z.A.S.].L.L.x.D.D.^.I c D.J.L.L.L.U.S.].^.a.z.S.O.R I.z.b.a.j.j.b.P.j.d.a.F.z.W a.s.j.F.b.n.",
"h.h.O.a.h.L.h.W l.j.D.z.j.x.j.S.G.D.D.A.z.S.G.L.D.D.D.x.o.m ^.j.D.S.z.x.].z.H.L.I.U.U m L.h.O.b.j.,XA.R O.a.D.L.j.a.f.S.j.k.b.b.",
"b.s.h.j.b.n.^.S.a.U.D.O.z.h.a.S.b.S.k.j.z.z.j.D.x.f.J.K.o.m P.l.a.S.z.j.A.D.f.D.j.F.n.b b.S.j.S.D.z.S.s.j.j.j.h.z.S.S.s.b.L.b.a.",
"b.k.S.j.A.n.L.G.A.D.j.z.S.D.D.a.L.K.W j.S.S.S.I.d.S.S.F.m m D.L.D.j.J.D.D.L.S.b.F.S.s., j.S.D.b.L.j.a.z.j.S.d.D.j.j.j.j.b.j.b.j.",
"s.j.F.F.S.b.s.j.A.j.j.a.D.L.S.D.+.F.j.L.d.J.S.S.D.J.G.n.$.N.x.j.j.L.].j.U.G.b.G.L.b.$.= K.P.b.h.s.R L.S.D.L.S.S.j.D.S.j.W b.j.b.",
"S.L.b./.L.h.d.D.F.j.S.j.j.a.b./.m O.].j.z.j.D.S.L.D.L.^.`.G.].L.P.D.j.j.j.S.F.S.K.S.N.x P.D.k.j.a.S.^.S.j.j.b.j.j.G.F.d.j.b.s.S.",
"b.n.k.F.S.F.S.F.A.S.j.S.S.h.j./.I b K.D.x.L.S.j.D.U.S.D.[.,X[.F.D.A.S.L.z.S.F.D.k.F.$.v K.a.S.L.a.S.D.a.j.]./.D.D.G.A.a.k.h.D.K.",
"E a.j.S.S.L.b.S.D.P.,XS.D.L.d.K.@.b F.b.J.S.L.A.W f.G.D.z.Y.Y.P.^.n.S.z.j.j.A.D.S.D.O.U L.L.S.k.S.A.a.S.j.D.A.a.j.P.j.z.j.h.s.s.",
"b.S.j.K.^.j.a.L.b.j.[.d.a.S.S.b.=.c S.P.L.a.j.L.A.A.G.U.z.x.F.[.G.G.^.A.D.z.j.k./.b.N.n.k.L.z.a.a.j.L.F.L.S.z.s.L.L.S.b.k.a.k.s.",
"F.j.b.s.b.a.b.s.S.d.j.j.D.S.j.F.o.U n.L.D.D.d.F.G.A.L.S.z.D.^.A.n.S.F.d.A.A.D.b.j.b.n.n.J.k.J.L.j.b.D.j.D.b.[.D.a.s.A.j.F.s.j.s.",
"S.j.L.A.d.a.b.n.S.S.h.^.,XL.D.F.N.n.G.D.A.j.S./.].A.j.S.S.D.{.^.S.L.S.^.I.l.D.S.A.H.I.b.n.l.V.L.S.n.S.h.s.b./.b.j.h.s.S.j.b.+.G.",
"j.j.L.a.b.^.L.{.[.b.S.L.S.s.F.L.A.f.j.G.L.s.n.+.a.U.G.D./.I.v.$.v.~.V.B.S.n.b.D.f.s.S.K.oXP.J.b.b.D.S.S.j.L.P.j.O.k.!.N.c.f.n.h.",
"A.b.S.j.G.[.L.a.b.F.D.s.O.a.j.L.S.j.d.D.U.J.S.k.L.s.[.S.I.Z.<. X@X0X0XoXY -.I.K.b.d.s.j.D.+.L.I.j.K.b.b.L.b.L.K.F.F.s.f.c.F.c.f.",
"j.j.f.s.o.S.[.F.j.S.[.S.j.D.F.D.A.d.z.z.d.L.P.C.L.c.j.^.Z.>.*..X9XiXyXyXiX2XoXC.-.F.^.D.j.J.j.b.k.b.[.b.S.F./.s.j.j.j.[.s.O.G.B.",
"j.s.O.F.S.F.^.D.S.S.a.z.S.D.j.S.j.z.z.a.j.f.A.^.Q.[.N.>.X.] :.<.6.%XuXgXlXjXgXhX0X>.V.F.L.G.A.F.k.h.K.S.h.F.j.h.+.S.s.S.{.h.+.s.",
"+.a.b.k.F.j.L.K.S.G.j.L.b.d.L.L.D.k.x.Y.U.j.b.H.H.s.M.( ^ |  .e.e.-XgXgX0X9XyXqX0X X-.V.[.A.g.G.L.k.s.L.S.F.a.+.s.h.j.s.j.n.s.S.",
"b.k.b.S.^.F.s.j.j.k.G.j.b.a.A.a.j.l.k.L.b.L.G.A.^.K.<.M | ` D ^ ] [ e.pXgX.X:.C [ ;.1.X.@.B.g.N.G.F.S.S.s.b.h.h.a.s.b.s.j.j.n.j.",
"L.k.W S.j.j.[.k.h.b.D.L.D.P.D.^.h.k.N.j.j.b.n.F.b.V.>.OX=Xe.8.K a 9 1 A OX4X| A C ^ ) V ,.<XG.b.{._.j.^.D.h.k.a.l.b.j.k.b.F.b.s.",
"b.a.b.b.b.j.L.F.j.D.^.F.s.F.^.G.h.c.$.v.b.n./.K.l.|.9XgXzXgX9Xw.{ A 9 < O / ;.^ w w ~ d M %.+.-.K.F.n.^.S.n.b.^.b.j.n.s.S.a.D.F.",
"b.b.b.S.S.F.F.L.I.j.D.a.L.S.b.G.F.F.$.s.F.K.n.I.l.@XdXzXmXlXuX*Xr.:.A f 9 8 ^ _ ! ! w 8 5 ( Z.S.j.h.a.s.h.s.D.[.j.^./.S.^.s.S.h.",
"j.s.S.F.k.^.n.D.^.F.K.S.n.^.n.F.H.G.b.F.K.S.S.V.Z.jXlXmXmXlXuXrXi.8. .[ A 9 d C 8 8 8 8 6 Z K.a.k.S.n.j.S.k.S.L.S.S.h.s.h.s.S.b.",
"s.F.^.b.K.L.F.s.L.F.G.F.+.s.F.a.O.H.D.D.K.K.S.~.|.jXmXmXmXbXkXaXrX$X6.6.K A i d 8 8 8 6 X ( !.^.S.S.D.^.n.+.F.b.[.S.j.k.+.b.h.a.",
"b.b.o.a.S.n.a.a.j.s.K.^.v E F.h.A.H.n.n.K.K.[.v.@XBXMXvXbXmXbXaXrX;Xr.8.[ S h g 9 8 6 6 o _ E.E.F.f.+.n.n.f.S.B.b.F.S.T l.s.j.O.",
"s.b.b.n.b.L.a.K.K.K.h.!.U U !.B.].D.N.F._.K.K.).cXnX8X9XiXiXuXaXpXi.y.8. . .K g s 8 5 5 X &.T.I.N.v.n.a.B.b.$.f.c.f.n.L.s.L.S.L.",
"S.s.K.Q.j.b.A.^.b.F.F.Q.W x ~.{.n.P._.G.j.!.v.Z.8X4XL 4.:Xw.4.P ;XtXu...7.{ ' k g i 6 5 + (.=.v.G.s.f.s.b.f.b.b.s.S.s.F.S.n.F.b.",
"^.b.F.S.s.A.s.^.L.L.{.^.b., F.!.P.k.n.F.S.K.7X@XH [ V a J 4.J J $ u.9X4Xt.e. .^ s d 6 + > T.V.N.F.n.n.F.s.b.^.^.n.b.o.S.c.F.b.S.",
"N.c.S.G.n.b.c.S.S.K._.B.k.b E I.^.b.d.S.J.-.1XNXlXOX* i & a K K { K .X8X4Xe.3.;.| 9 6 # > T.^.N.F.b.S.h.b.d.n.b.b.b.G.N.h.S.G.B.",
"F.`.B.s.Q.f.N.c.G.n.k.f.h.N.h./.^.s.n.+.b.I.-.fXmXxX0.` # & t z L P { [ < . . ~ _ _ 8   n R.^.n.h.b.h.+.j.s.n.s.s.{.N.s.h.s.O.N.",
"b.b.N.N.n.b.f.b._.F.s.a.v./.n.n.v.a.L.b.k.k.|.dXzXgXp.p.j $ * y $ &X4Xt K t < d   ! _ X G g.N.b.K.G.h.a.b.n.n.S.S.S.n.S.F.S.O.a.",
"s.#.f.!.G.b.G.S.B.S.F.!.I.^.K.n.j.b.b.s.K.0XiXxXrX;Xp.u...' ' l 7.VX6XO K K 0 # 5 5 e e R.g.f.b.b.h.b.k.b.S.^./.^.S.N.j.n.o.h.n.",
"B.O.#.s.s.s.n.^.n.S.N.s.L.s.F.b.d.]._.v.v.hXlXdX%X%X$X$X*Xr.8.p.aXnXu.$ z ' u #   # ~ ( B.H.s.S.n.F.n.f.f.$.b.B.n.c.B.f.S.+.j.s.",
"s.g.b.c.$.S.n.b.b.h.b.n.s./.^.b.s.b.`.~.v.0XiXuX9.y.XX$X5Xi.r.5XtX4X` 1 z j * O _ wXW.W.m.g.S.N.k.b.n.n.^.S.b.S.F.j.F.b.n.H.F.c.",
"c.k.N.B.S.b.b.s.N.S.d.^.L.b.j.s.N.f.v.h.l.C.3XuX6.8.*X*X;Xi.6.r r ! h p u u y 0 / ~   ,.+XF.s.G.N.f.N.^.`.B.N.N.f.c.s.N.g.s.F.s.",
"$.N.B.h.b.$.S.b.F.s.^.F.N.j.b.N.!.B.k._.I.Y -X;Xr.8.&X*Xi.i.r.5.` u y k ^ k k g * o #X+Xc.n.b.H.n.b.o.N.N.s.b.s.G.!.#.s.s.s.N.c.",
"N.k.$.B.s.s.s.n.^.^.s.G.c.s.c.N.`.{.<X`.f.>.-X&Xt.9.$X=X*X;XrXi.` z l ^ / ^ ! 9 < W.~.$.l.h.S.^.s.n.c.N.s.#.O.B.!.g.O.s.F.B.$.s.",
"B.K.G.v.S.h.g.n.s.b.S.^.B.`.`.`.Q.F.B.S.c.Z.y.q.q.XX*X;X*X5X5X7.5.z h ! ` / f 4 1.,.Q J.k.s.B.F.s.g.c.B.$.s.B.Q.B.f.N.N.$.g.S.c.",
"c.B.B.h.b.n.f.b.B.n.H.T B.N.N.S.B.K.n.I.j.C.0.9.q.*XeXt.6.7.r O y p k k ` k < ) m.m.v.B.f.K.g.B.g.n.b.S.b.N.b.s.T $.c.O.s.F.!.o.",
"K.F.v.K.d.S.b.b.F.f.a.s.+.s.^.B.N.F.L.k./.P.*.*.XX*X$X5.7.u...! l y l k k < M Z.(.R.N.s.L.s.b.(.F.g.c.s.N.F.#.s.N.s.b.O.o.g.`.S.",
"B.K.O.b.G.h.b.h.s.A.B.n.S.N.B.N.n.s.h.k.V.oXZ.} -X%X*.} } j l k l u u f 9 4 X.v.g.Q.^.f.b.[.N.#.c.g.b.b.N.c.N.K.b.F.n.c.g.o.n.b.",
"s.N.n.N.N.#.n.n.s.+.s.B.B.c.g.F.A.G.b.K.B.Z.C.H XXXXP } ' j y y u p l i # ( E.n.g.g.S.S.n.N.B.^.b.g.g.c.B.s.b.c.$.s.N.s.N.H.#.b.",
"c.c.Q.^.^.S.b.s.Q.B.S.c.Q.s.F.F.F.g.n.B.(.B.).>.1.OXt.8.{ j f f p 9 s < n >.K.l.c.K.S.F.S.b.c.I.s.g.F.b.N.F.B.F.g.T c.B.g.s.g.G.",
"N.s.c.F.!.j.!.G.G.o.b.`.F.`.F.B.B.B.N.N.b.B.B.C.Y  X4Xy.7...{ D s s # e <.m.K.P.K.N.R a.b.c.b.F.s.c.S.N.s.^.N.#.f.Q.N.O.s.c.s.!.",
"S.$.N.s.+.^.c.c.g.N.s.+.}.[.S.N.B.!.N.n.N.B.c.c.~.-.[ ;.'  . .` V @ X.W.B.Q.G.G.j.n.h.+.B.^.N.b.s.s.n.S.O.#.c.O.G.N.s.+.s.o.g.N.",
"N.N.h.s.s.N.N.G.!.b.^.n.b.d.G.c.n.h.F.B.F.n.^.n.n.v.3 H H C f q V H W.E.B.d.N.Q.T s.K.b.$.c.F.H.s.o.c.g.g.F.O.c.F.b.j.n.s.Q.N.s.",
"F.n.O.).c.+.N.`./.s.N.s.f.Q.s.b.F.F.K.B.B.G.N.F.B.c.3 @.E.B.v.,.m.Z.%.B.).}.R.g.K.K.P.b.N.b.Q.s.o.h.#.f.Q.F.B.F.B.F.b.g.g.b.g.g.",
"F.n.g.S.F.N.h.g.+.s.B.N.1X^.n.^.K.$.!.!.E.R.m.m.R.,.3 ,.).v.N.~.!.m.`.%.g.`.g.s.K.a.b.I.!.n.b.N.F.b.F.N.b.$.N.c.n.F.g.c.N.Q.b.$.",
"g.s.n.c.g.F.N.B.s.N.g.$.Q.c.F.B.m = c c 3 - c - 3 3 X ) '.m.E.v.v.N.K.!.g.N.#.s.^.I.k.v./.h.N.Q.Q.B.!.N.$.$.B.E.N.F.K.f.O.c.B.=.",
"N.F.!.b.#.b.b.F.o.n.!.S.s.N.B.B.@.,.,.m.(.R.(.m.T.T.M X 3 2 2 I m.B.B.!.H.Q.Q.f.!.K.F.h.F.^.B.B.+.$.o.m.o.$.^.B.c.s.$.v.c.^.N.m.",
"c.s.c._.+.g.c.S.n.s.N.s.v.F.N.K.).!.B.!.Q.m.`.Q.'.1XM ,.W.o.o.b B F.B.Q.g.g.G.G.b.Q.K.^.B.v.n.K.b.k.=.B.c.c.#.=.v.$.c.`._.!.N.B.",
"^.B.F.Q.Q.G.!.$.s.s.Q.b.s.B.h.#.F.K.!.G.n.b.g.n.c.^.n T.'.!.B.c.m $.B.s.s.#.#.g.#.S.).(.~.O.`.=.h.N.B.s.c.c.$.#.c.B.c.S.V.o.$.h.",
"c.g.!.B.b.B.S.B.`.`.N.G.^.B.n.^.K.K.n.!.s.!.N.$.!.).e ( (.Q.B.N.K.`.B.c.b.j.F.N.Q.c.N.g.N.B.b.F.N.N.h.N.B.c.$.`.!.c.$.c.F.m.$.o.",
"$.$.Q.`.G.B.g.g.n.Q.N.N.Q.s.h.N.$.^.v.c.Z.$.> X X.&.X X.).`.B.N.v.B.h.B.`.^.b.n.B._.g.o.F.N.N.N.n.v.#.B.B.m.c.O.$.h.B.B.^.B.$.c.",
"c.B.!.c.g.$.#.b.o.F.}.N.v.K.V.b.#.N.G.m.T.G n W.3 X   n n o.B.B.F.n.N.F.c.N.^.m.!.I.B.$.c.Q.$.#.v.n.N.g.B.%.%.c.U $.v.B.B.Q.c.B.",
"B.c.c.g.U Q.Q.Q.N.N.`.`.F.b.N.Q.N.#.N.m.W.> &.!.( X 3 G @.- #.`.F.!.`.v.v.!.Z.n.K.K./.F.!.#.g.B.!.K.n.c.v.$.g.N.!.m.$.B.B.B.=.c.",
"%.c.s.c.`.H.g.N.g.N.g.N.N.$.v.!.N.`.b.c.%.> R.!.Q.I %.`.R.> f._.G.`.`.N.B.m.h.v.B.+.^.!.c.N.N.c.$.b.B.v.B.#.$.c.(.c.$.=.c.o.o.B.",
"N.v.c.B.N.s.$.Q.g.#.F.N.B.^.!.B.g.F.F.(.@.B B.S.!.R.K.I.#.2 %.^.N.B.^.N.$.c.m.S.Q.H.s.F.!.^.%.K.s.!.^.B.$.c.,.s.E $.h.$.c.c.B.B.",
"#.$.N.c.m.N.F.N.F.c.m.F.B.B.^.=.F.F.c.B.,.n !.s.g.s.Q.R.}.N N %.%.`.R.Q.F.S.S.G.s.f.N.N.N.c.v.F.$.^.B.$.c.Q.E.$.U c.U $.B.$.c.B.",
"c.B.B.c.Q.g.s.c.g.g.!.^.c.$.$.Q.N.^.B.s.N c ^.Q.g.c.B.N.R.U X.'.R.c.b.Q.Q.s.`.G.`.H.Q.!.o.c.=.v.B.b.).B.c.B.B.B.c.$.B.c.$.K.m.c."
};
