/* XPM */
static char *_904_66db416eb03bda5e61de719a02e31cbf212635d80a12b0dcf78f70ae1d58ea69[] = {
/* columns rows colors chars-per-pixel */
"64 64 170 2 ",
"   c #590600",
".  c #570900",
"X  c #5C0D00",
"o  c #5D1400",
"O  c #5F1B03",
"+  c #610E00",
"@  c #641300",
"#  c #6A1500",
"$  c #651B03",
"%  c #6C1B04",
"&  c #6C1E09",
"*  c #731D05",
"=  c #7A1C06",
"-  c #741E09",
";  c #7A1E09",
":  c #6C2006",
">  c #67220A",
",  c #6C220A",
"<  c #742106",
"1  c #7A2106",
"2  c #74230B",
"3  c #7B240C",
"4  c #74280D",
"5  c #7C290E",
"6  c #6D2712",
"7  c #6D2814",
"8  c #742511",
"9  c #7C2611",
"0  c #742B13",
"q  c #7D2B13",
"w  c #7E2E18",
"e  c #7D3016",
"r  c #7D311A",
"t  c #81260D",
"y  c #89260F",
"u  c #83290E",
"i  c #822612",
"p  c #8A2710",
"a  c #832C13",
"s  c #8A2C14",
"d  c #852E19",
"f  c #8C2E19",
"g  c #912E17",
"h  c #853116",
"j  c #8B3117",
"k  c #84331B",
"l  c #8B331B",
"z  c #8D391F",
"x  c #92351C",
"c  c #913A1E",
"v  c #993B1F",
"b  c #8B3621",
"n  c #863A22",
"m  c #8D3B23",
"M  c #8D3F2A",
"N  c #903520",
"B  c #933C23",
"V  c #993D24",
"C  c #933E2A",
"Z  c #9B3E29",
"A  c #A23F26",
"S  c #A13E29",
"D  c #86422B",
"F  c #8E422B",
"G  c #8E482F",
"H  c #944225",
"J  c #9A4227",
"K  c #94432C",
"L  c #9B442C",
"P  c #9D492F",
"I  c #954631",
"U  c #9D4632",
"Y  c #954A32",
"T  c #9C4B33",
"R  c #9D4D39",
"E  c #9E5136",
"W  c #9C533A",
"Q  c #9E583F",
"!  c #A54626",
"~  c #A4452C",
"^  c #AA442D",
"/  c #A3492E",
"(  c #AD4B2E",
")  c #B14427",
"_  c #B3462B",
"`  c #B34A2D",
"'  c #B94B2F",
"]  c #A34732",
"[  c #AA4730",
"{  c #A44C33",
"}  c #AB4C33",
"|  c #A24D38",
" . c #AB4E39",
".. c #B34D33",
"X. c #BA4E34",
"o. c #B54F38",
"O. c #BA4E38",
"+. c #A35237",
"@. c #AC5135",
"#. c #A5543C",
"$. c #AC533B",
"%. c #AD593D",
"&. c #B45135",
"*. c #BA5235",
"=. c #B4543B",
"-. c #BB553C",
";. c #B4593E",
":. c #BC593E",
">. c #C1563D",
",. c #C1593E",
"<. c #A65442",
"1. c #AD5642",
"2. c #AC5A43",
"3. c #A45849",
"4. c #A95C4B",
"5. c #B45641",
"6. c #BC5741",
"7. c #B55B43",
"8. c #BC5B43",
"9. c #B55E49",
"0. c #BB5E49",
"q. c #AA6249",
"w. c #B66146",
"e. c #BC6146",
"r. c #B5624A",
"t. c #BC634B",
"y. c #B0684F",
"u. c #BE684D",
"i. c #AE6751",
"p. c #B26450",
"a. c #BD6651",
"s. c #B56952",
"d. c #BD6A53",
"f. c #BB705B",
"g. c #C05741",
"h. c #C15C43",
"j. c #C95B42",
"k. c #C15E48",
"l. c #C26146",
"z. c #C3644C",
"x. c #C9664D",
"c. c #C4694E",
"v. c #CA694F",
"b. c #C46751",
"n. c #CA6751",
"m. c #C56B53",
"M. c #CA6C54",
"N. c #C56D59",
"B. c #CB6E59",
"V. c #D16D55",
"C. c #D26D59",
"Z. c #C67156",
"A. c #CB7156",
"S. c #C5735B",
"D. c #CB725A",
"F. c #CB795C",
"G. c #D2745D",
"H. c #D1795E",
"J. c #CE7662",
"K. c #C77962",
"L. c #CC7963",
"P. c #CA7C68",
"I. c #D67761",
"U. c #D47C64",
"Y. c #D87E64",
"T. c #D47F69",
"R. c #CE8165",
"E. c #D48066",
"W. c #D88166",
"Q. c #D78671",
/* pixels */
"s s a e T Y i a 8 , w 5 a d i i i a u i q d 2 W W @ q 3 2 2 2 * & & : 4 4 5 5 , 2 w 9 i 9 8 d 3 5 5 3 4 9 9 u i 8 8 5 a j h 4 , ",
"6.5.;.2.s.t.=.$.e r 2.d.a.0.0.t.z.7.8.7.$.P +.Z.Q 0 $.9.r.r.t.r.r.w.w.w.%.;.2.k q <.a.a.K.N.r.7.7.r.w.e.r.5.=.$.8 I %.;.;.;.#.n ",
":.l.8.8.7.8.h.=.d k u.D.m.M.B.M.M.M.c.z.7.$.7.w.F q t.B.c.m.D.A.M.z.e.,.-.h.:.m q r.N.J.T.S.N.B.V.M.c.z.l.8.;.*.2 | 0.:.8.8.t.P ",
"*.h.:.;.6.6.j.o.d k c.m.m.Z.c.l.8.8.:.8.;.&.8.z.K 3 8.V.M.z.z.8.-.:.:.:.:.,.;.z d 1.U.T.B.m.m.z.8.h.,.,.:.*.*.*.3 U h.j.,.:.8.! ",
":.e.:.,.l.8.>.*.h h u.M.A.c.8.:.8.h.:.&.} &.:.l.L 3 6.x.k.8.:.h.8.h.h.h.-.6.8.l h N.T.B.M.c.8.h.-.j.,.>.*.` ' &.3 P 8.>.:.:.l.~ ",
";.:.:.,.:.:.h.&.h k m.m.z.8.8.8.8.-.&.l.c.&.-.x./ 3 ....o.-.:.-.6.-.-. ...8.0.K B m.D.n.k.:.h.:.h.,.*...( ) ' *.; U h.-.,.,.8...",
"-.:.,.h.h.g.h.&.5 l b.z.k.6.h.-.;.&.h.M.V.-...v./ 1 ..-.-.6.6.6.:.&.&.~ } 7.b.2.L r.b.8.h.h.:.8.*.O._ _ ` ` ' ` 3 U 8.h.h.-.:.&.",
"-.h.h.,.h.6.:.} h j 8.6.6.8.6...=.8.n.M.6.6.} z.] * $.h.6.h.6.-.-.k.8.8.$.$.Z.T z 7.t.-.:.:.-...( _ _ ` _ ` ` ` ; ] 8.h.h.h.g...",
"O.>.O.O.-.o.&.} a h 5.h.6.0.5.8.t.S.S.t.t.t.=.Z.T 2 +.t.7.5.7.7.5.a.0.a.d.P.T.k i t.l.k.-.*.*.&.&.*.*.*.*.` :.( i ] h.:.-.X.} ..",
"S ^ [ ^ ~ / ! J 5 l Z L  .b.u.d.P.f.d.d.N.N.r.E.T , L 7.u.b.t.u.d.d.a.d.9.#.#.w l +.$.&.-.} ..-.*.&.` &.` ` ( L i b / ~ ~ ! ! ~ ",
"i ; - - 9 9 * * & 2 9 & 8 & F Y 0 6 - - 2 & < n w > 9 2 9 a 5 5 4 2 - - % @ , 2 8 8 2 3 9 9 q 3 2 1 1 < 1 5 2 2 & 9 8 3 i i 3 9 ",
", I R U T U P ] T U T I I G W R , 0 M C C K K H C K F C C B L l < H U T U K K H B K H b d r.p.@ l P P P / J K #.| | | +.$.$.U 9 ",
"d 2.w.w.t.k.8.h.k.8.e.;.$.S.5.B 2 r 1.B.B.m.Z.m.N.N.b.m.t.7.8.x 5 u.B.b.m.B.M.b.A.c.e.@.$.b.| % } 8.8.e.7.$.$.7.w.e.e.h.,.l.=.l ",
"d 5.7.e.8.-.:.:.8.h.h.&.b.0.;.] 2 k 5.B.M.b.Z.M.M.B.B.m.M.8.6.x a N.M.B.M.M.n.x.8.8.8.@.8.t.{ %  .h.8.8.} b.5.c ;.h.,.*.:.,.&.a ",
"f 7.8.:.6.h.h.8.6.6.$.u.m.=.8.$.- k  .V.B.B.Z.v.B.M.b.b.A.e.*.x a d.m.B.m.k.8.6.,.,.*.( 8.t.E % @.8.8.=.D.N.d.9.J ( :.j.-.8.5.d ",
"i 7.e.8.8.6.....o.8.z.A.7.7.b.$.$ h ;.V.b.M.v.M.x.v.Z.M.M.e.z.x a m.B.m.0.8.8.h.,.*.=.&.;.z.E $ { 8.5.B.a.7.7.t.z.&.^ =.8.8.1.d ",
"t 7.8.0.1. .7.z.z.c.z.8.8.8.B.9.@ d 5.C.M.M.M.A.M.v.c.c.e.c.A.x a N.b.0.h.8.,.-.>.>.j.-.o.a.Q $ H m.M.8.8.:.8.8.7.z.t.} 6.8.a.w ",
"u $.t.5. .N.e.8.7.8.:.-.8.;.N.9.@ d &.v.n.b.z.l.h.l.h.;.M.A.8.s s 0.0.6.8.:.&.&.-.>.h.h.5.a.#.@ L b.b.8.h.:.e.:.8.:.0.7.6.0.a.0 ",
"1 ;.=.} z.;.;.:.8.:.>.h.:.;.F.9.X h &.,.:.:.,.:.-.-.-.h.n.o. .x u t.8.8.-.} 5.7.-.:.-.-.[ 0.#.@ Z 8.6.-.,.-.:.:.:.;.7.7.M.z.S.2 ",
"5 P { t.t.t.z.z.t.b.n.C.M.D.F.L & m 5.8.8.h.:.:.=.=.z.c.5.;.8.s u $.$.0.b.b.b.a.m.b.b.B.t.J.2.@ Z 0.N.b.x.z.x.z.c.m.b.F.M.Y.r.: ",
"6 0 M C K 4.L K T C I C C K k k > k / J P J L J #.q.+.T U | Y e 0 n k T 1.3.4.3.3.4.3.<.<.s.W o k Y <.#.| { ] T T W T C B H e 8 ",
"6 0 & % C m < % $ & % # # & 2 2 8 4 3 < 3 5 t y z G 2 @ + + o @ o o @ X   X   X o X . X X & & > & $ + @ @ @ # % $ @ # * 1 * 0 , ",
"<.| $.t.:.~ ~ / k w 2.7.=.r.;.w.7.5.;.-.;...` :.z 5 { @. .=.+.+.<.1.5. .} $.{ l q +.2.7.1.1.1.<.#.$.1. .@.@.@./ 3 m  . .&.$.$.$.",
"7.t.A.n.-...` ( a m d.M.A.A.A.M.B.B.V.V.x.>.' ,.v h e.M.B.n.A.A.M.B.b.k.8.h.8.x a e.M.Z.B.N.B.B.D.A.M.M.z.8.8.&.5 P z.B.b.n.M.B.",
"b.c.e.8.:.X._ ` s C N.b.B.b.M.m.M.b.M.M.V.,.' :.v 5 e.V.n.x.c.l.8.;.:.:.h.6.8.b i 7.B.b.B.M.M.b.l.j.g.g.8.*.*.&.5 B 8.M.b.n.I.A.",
"H.z.:.h.-.' _ X.d b N.B.M.n.M.m.B.B.b.n.V.l.' ,.J 5 :.x.x.k.8.:.:.,.:.h.-.:.0.l l e.D.B.M.x.h.8.:.,.j.g.-...` &.5 c 8.n.D.Y.m.7.",
"l.h.-.X._ _ ` ` d b b.N.M.M.m.M.m.M.A.M.v.l.' :.c 5 &.-.*.8.-.-.,.,.:.&.} e.7.L / r.m.M.c.8.8.h.:.,.>.X.` ` *.&.3 B 7.I.I.z.8.0.",
"*.*.` ` ' ' ` ( d b B.C.M.M.c.b.c.c.t.e.e.:.' *.B 5 } *.*.-.*.-.&.&.&.v @.7.d.$.m u.m.e.-.:.,.,.,........._ ' &.; J =.C.B.8.6.0.",
"' ' _ ` .._ ` &.d f t.z.h.j.h.8.8.8.6.6.8.-.` *.c u ..g.8.h.6.h.,.:.8.;.{ 7.P.| q 7.e.:.,.,.,.' ` ` ` ` _ _ X.` 5 L :.-.6.h.8.O.",
"` ` &.` ( ` ..} q b 7.8.g.g.-.:.=.=.=.o.&.` ` *.j w  .8.7.8.5.=.=.7.;.9.d.P.Q.b d r.8.8.l.-.` ` ` ( ` &.....` ( 5 J 8.h.-.-.....",
"..( { } } } } ! 9 F 7.7.8.-.7.c.l.;.-.-.8.;.-.&.r r | 0.d.d.a.m.d.N.S.P.f.f.s.w h 5.e.:.;.-.=.:.=.-.:.=.-.-.*.} q H { @.] / [ } ",
"s s a a s i u 5 - w l s j s B { c s g p s p j j : 2 q l m M M C F m I 3.F . 2 3 u a u s s j u j s s u s s p a h & q i a h s d s ",
"2 q d s j j l j f x l f j P $.J @ 8 N x N z N h b L K J v c m 1 $ 9 w s h b N j s j x s x x c < 9 N B N B V x c m z B N f b d 3 ",
"2 #.t.z.z.e.u.t.n.x.k.t.c.c.:.$.& I 0.8.r.w.| %.=.8.8.8.h.e.e.z 5 T t.b.b.z.x.b.t.z.z.7.8.;.} 2 C 7.w.e.h.8.8.e.e.7.8. .m.r.H k ",
"3 1.D.m.M.A.Z.Z.b.B.F.H.M.&.*.&.@ R 0.:.e./ $.;.] 6.8.:.h.:.7.c 5 P b.M.M.Z.B.B.D.M.M.B.z.=.} ; ~ h.7.e.h.:.8.8.7.8.=.-.B.;.#.0 ",
"9 1.S.m.M.m.c.Z.M.B.Y.E.z.-.X.&.% T z.;.;.c.e.8.8.~ *.h.-.8.e.c 5 P n.M.m.b.N.b.m.m.n.B.b.5. .; S 8.e.:.-.:.h.h.8.e.=.M.h.e.%.e ",
"2 1.N.m.n.M.m.Z.m.b.L.A.v.:.*.*.@ E ;.$.z.;.:.8.8.8.L @.h.8.7.c 3 ] M.M.Z.m.Z.m.m.B.B.M.x.8.$.5 Z 7.D.z.8.8...&.$.$.B.b.8.8.t.9 ",
"2 1.S.n.V.M.M.m.b.D.c.c.l.*.*.X.% n @.8.:.:.7.8.8.8.c./ $.6.t.N ; ] M.M.M.A.M.Z.M.n.x.M.z.5. .< B D.M.7.&. .8.e.z.c.t.8.8.z.b.i ",
"< %.M.M.n.v.x.x.z.8.e.8.,.*.>.( @ F t.-.h.h.8.8.e.7.e.8.[ 8.b.C * } b.M.v.v.z.z.k.j.h.g.6.7.+.% | Z.u.} 7.v.e.z.8.;.8.8.:.z.m.< ",
"< { e.8.:.>.h.>.*.8.-.:.-.` ' ( # M 8.h.-.8.-.7.5.7.=.8.b.5.J.C * ] e.e.:.:.:.,.g.>.g.-.-.$.+.c E 7. .=.t.;.;.;.;.7.5.8.&.c.m.< ",
"5 } e.,.,.,.>.>.O.O.X.X...' *.! $ m t.b.0.z.b.k.a.S.S.N.D.U.J.b t @.:.l.,.-.,.*.-.*.>.X...e.$.k z ] ;.z.8.z.k.k.u.c.b.N.A.U.7.3 ",
"u @.;.@.=.-.X.X.-.&.o.o.&.&.( v & r 5.0.0.9.0.5.4.f.s.9.| <.R w j { / =.=.( ( *.........;.m.+.$ k b ~ ]  .| o.o.%.#.2.$.$.| B 2 ",
"& 2 2 < % * ; * - $ * * % % < : > > $ # # # + 8 Y r . + @ X o $ @ : $ $ $ & % 2 - * # * > e 0 O , 2 * * @ % # # $ O @ @ # $ % , ",
"L I K I T L C C w w K Y T Y P Y Y K L P Z B I L.i.$ K C U K F M F F K K B K F 0 8 M T U Y Y G Y K H K K L L L C 4 k L U ] T F 4 ",
"8.c.e.8.8.:.e.=.5 k r.S.A.A.M.b.m.A.b.c.7.$.m.N.F 0 9.B.b.S.D.N.A.M.n.z.8.t.7.m h 7.M.B.M.Z.m.m.S.M.M.v.x.h.g.-.3 / 0.0.8.0.8.c ",
"n.V.h.:.e.:.8.&.h j v.A.n.M.B.n.c.t.l.:.A.b.0.t.G 9 z.M.M.c.b.c.h.8.6.8.:.8.8.j s 7.M.M.M.M.M.n.z.z.e.l.8.>.O.*.1 { h.6.-.:.h.A ",
"V.l.:.:.-.6.h.&.h k b.M.M.M.x.8.6.-.,.:.=.8.8.a.L 2 8.V.z.x.8.8.:.:.g.h.6.6.6.N h r.B.B.v.M.z.h.:.8.h.-.-...X.&.1 / 6.8.m.z.8.! ",
"h.:.8.h.8.h.g.=.a k d.D.n.k.6.h.j.h.&.*.*...;.b.Y 3 ..h.-.,.8.:.8.h.h.-...8.t.N q 0.B.x.v.l.:.8.8.:.,.-...` ..&.< P 8.z.D.z.8.} ",
"-.h.:.:.>.:.h.&.w k m.m.8.8.h.g.g.O.-.,.h.*.=.b.Y 2 } *.-.*.-.*.*.o.} ! } t.0.B u e.A.l.:.,.8.:.-.>.X.) _ _ *.@.< P b.D.b.8.:...",
"-.:.,.,.h.h.6.o.u k e.7.e.:.>.-.-.-.h.8.6.6...b.Y <  .>.,.:.,.h.8.8.-.=.] 5.a.Z a e.l.:.,.,.g.>...` _ ' ' _ ' ( 5 #.D.t.-.6.,.X.",
"*.:.>.>.>.g.-.} h j ;.k.:.-.*.&.8.:.;.;.-.8.^ z.E % &.h.*.-.-.=.5.8.-.e.e.r.I.B s h.:.;.:.>.X._ _ _ _ ' ' _ ....j %.u.:.j.,.*._ ",
"@.@.......[ ..} a h @.;.=.B.t.b.d.b.m.m.M.A.z.T.T 2  .z.c.c.e.u.b.m.r.R.R.F.J.d j w.e.l.:.,.-.:.*.:.-.-.-.*.-.c.L H %.;.} ( ` ( ",
"z k z B B j l d 2 w d d N 1.E W Q W Q | <.U | a.G $ b ] +.#.#.W W W q.i.G 6 w 0 a B z B c v B H J V C B B V C U k w b l l z l m ",
": e q q i a s 9 w w d q a @ : , o o $ # # * * & 0 0 9 - - $ 2 > O D n $ & 9 w 9 q 5 5 a u a e * * 5 i a a q 2 3 r k b l l k l 4 ",
"5 +.w.;.8.6.0.6.7.5.=.9.| t.$.m 0 k | 6.0.0.8.9.5.9.6.o.$.+.;.B F 4.9.7.9.9.0.5.7.:.=.=...=.$.< ! 8.;.7.5.$.+.@.7.5.8.8.:.e.%.j ",
"h ;.8.8.k.8.8.8.0.5.t.D.t.m.=.P - b 5.C.B.C.M.D.B.B.C.V.n.:.t.=.d 9.D.B.B.B.B.C.M.V.V.x.*.&.;.* } h.;.8.$./ ;./ =.z.8.h.8.-.%.h ",
"a w.7.8.8.8.h.:.7.t.D.w.Z.;.h.] 2 k 5.M.n.n.m.m.M.M.x.v.v.8.h.$.i 0.B.v.b.m.b.M.M.v.v.v.*.&.&.= } 0.7.8.8.t.8.;./  .k.6.6.6.=.d ",
"h 5.e.7.h.l.:.%.;.c.w.D.e.;.c.$.% r 1.M.M.m.Z.c.v.A.M.v.v.e.7.x 3 0.D.M.M.Z.m.M.c.M.v.v.:.&.-.= 5.8.$.t.z.-.h.;.8.}  .k.k.h.$.a ",
"5 7.0.6.8.} { w.m.m.b.b.7.7.n.5.$ e 5.n.M.Z.Z.Z.m.m.M.A.v.8.7.x - 9.M.b.m.Z.S.m.M.M.M.x.:.( %.= C } 7.7.-.h.-.l.7.z. .] 8.8.;.u ",
"9 7.8.8.( t.F.Z.b.e.8.-.8.7.m.w.@ k 5.V.M.v.v.v.z.c.z.e.8.:.8.l * t.D.M.M.n.m.c.z.l.l.h.:.&.$.* b 9.7.8.h.>.8.8.7.7.u.] ;.8.u.u ",
"3 5.0.} 8.A.F.u.&.8.-.h.6.&.m.w.@ h =.k.l.l.h.8.8.8.:.,.>.-.-.x 1 7.c.h.l.h.8.:.:.:.*.,.&.@.%.$ L 7.8.6.g.g.8.8.;.e.;.7.7.0.M.i ",
"9  .] 7.t.;.r.e.0.x.8.z.n.b.E.#.o k =.8.:.:.-.6.:.*.*.&.....&.b 5 $.8.-.:.-.:.-.=.&.&.( ( e.r.4 Z e.t.7.0.8.0.8.e.w.u.v.H.F.N.* ",
"0 n #.1.7.9.2.7.0.0.t.t.r.d.7.k > M $.:.:.;.-.;.=.*.;.=.-.;.$.d k %.8.h.6.;.=.;.=.-.;.;.e.Z.W $ z t.d.b.b.a.u.e.u.u.w.d.9.d.R 7 ",
"> 6 w 9 q 3 9 3 3 - 2 : & : 2 9 $ r l u u s s s f s j j p a h 2 3 k s s g g g s j j u c L F 0 > 4 q w e q q w 0 5 5 4 2 * & 7 7 "
};
